<svg width="476" height="490" viewBox="0 0 476 490" fill="none" xmlns="http://www.w3.org/2000/svg">
<path d="M377.373 90.3543C369.508 134.505 339.248 166.037 309.628 160.865C308.508 160.688 307.414 160.391 306.393 160.042C282.326 153.469 266.972 123.208 268.466 87.1199C268.565 85.3543 268.638 83.6095 268.841 81.8438C269.112 78.4116 269.586 74.9011 270.232 71.3907C270.706 68.8022 271.253 66.3126 271.8 63.8022C281.06 25.672 307.242 -1.35407 333.893 0.411558C335.19 0.510515 336.581 0.58864 337.878 0.885515C367.466 6.16156 385.138 46.1303 377.373 90.3543Z" fill="#D2A48F"/>
<path d="M469.904 224.078C457.961 257.026 430.383 277.187 408.284 269.146C407.362 268.776 406.44 268.401 405.498 267.953C405.498 267.953 405.399 268.052 405.399 267.854C387.18 258.969 379.862 231.495 387.628 202.698C388.274 200.208 389.123 197.62 390.039 195.01C390.69 193.239 391.435 191.5 392.081 189.734C404.477 161.411 428.539 144.015 448.899 149.114C449.821 149.292 450.742 149.588 451.685 149.937C473.685 158 481.852 191.224 469.904 224.078Z" fill="#D2A48F"/>
<path d="M85.7633 195.036C86.4716 196.99 87.1175 198.958 87.6956 200.948C88.2737 202.937 88.7841 204.937 89.2268 206.943C89.6696 208.948 90.0393 210.958 90.3414 212.964C90.6383 214.969 90.8675 216.964 91.0237 218.948C91.18 220.932 91.2633 222.901 91.2737 224.844C91.2841 226.792 91.2216 228.708 91.0862 230.594C90.9456 232.479 90.7373 234.328 90.4612 236.141C90.18 237.948 89.8258 239.714 89.4039 241.432C88.9821 243.146 88.4925 244.807 87.93 246.411C87.3727 248.021 86.7477 249.562 86.055 251.042C85.3623 252.521 84.6071 253.932 83.7893 255.271C82.9664 256.609 82.0914 257.875 81.1539 259.062C80.2216 260.25 79.2268 261.354 78.1852 262.375C77.1383 263.396 76.0446 264.328 74.8987 265.177C73.7581 266.026 72.5706 266.781 71.3362 267.448C70.1071 268.109 68.8362 268.682 67.5289 269.156C66.2216 269.635 64.8831 270.01 63.5133 270.297C62.1435 270.578 60.7477 270.76 59.3258 270.849C57.9039 270.932 56.4664 270.922 55.0081 270.807C53.5498 270.698 52.081 270.49 50.6018 270.182C49.1227 269.875 47.6383 269.469 46.1487 268.969C44.6591 268.469 43.1748 267.875 41.6956 267.187C40.2112 266.5 38.7425 265.719 37.2789 264.849C35.8206 263.979 34.3779 263.021 32.9508 261.979C31.5237 260.932 30.1175 259.807 28.7425 258.604C27.3623 257.396 26.0133 256.115 24.6956 254.755C23.3779 253.396 22.1018 251.969 20.8571 250.474C19.6175 248.974 18.4143 247.417 17.2581 245.797C16.1018 244.172 14.9925 242.5 13.9352 240.771C12.8779 239.042 11.8727 237.266 10.9196 235.443C9.96643 233.62 9.0758 231.766 8.23726 229.87C7.40393 227.974 6.63309 226.047 5.91955 224.099C5.21122 222.146 4.56538 220.177 3.98726 218.187C3.40913 216.198 2.89872 214.198 2.45601 212.193C2.0133 210.187 1.64351 208.182 1.34143 206.172C1.04455 204.167 0.815385 202.172 0.659134 200.187C0.502883 198.203 0.41955 196.24 0.409134 194.292C0.398718 192.344 0.461217 190.432 0.601842 188.542C0.73726 186.656 0.945593 184.807 1.22163 182.995C1.50288 181.187 1.85705 179.422 2.27893 177.708C2.7008 175.99 3.19038 174.328 3.75288 172.724C4.31018 171.115 4.93518 169.573 5.62788 168.094C6.32059 166.615 7.0758 165.203 7.89872 163.865C8.71643 162.526 9.59143 161.26 10.5289 160.073C11.4664 158.891 12.456 157.786 13.4977 156.76C14.5446 155.74 15.6383 154.807 16.7841 153.958C17.9248 153.109 19.1123 152.354 20.3466 151.687C21.5758 151.026 22.8466 150.453 24.1539 149.979C25.4612 149.505 26.7998 149.125 28.1696 148.844C29.5446 148.557 30.9404 148.375 32.3571 148.292C33.7789 148.203 35.2164 148.213 36.6748 148.328C38.1331 148.437 39.6018 148.646 41.081 148.953C42.5602 149.26 44.0446 149.667 45.5341 150.167C47.0237 150.667 48.5081 151.26 49.9873 151.948C51.4716 152.641 52.9404 153.417 54.4039 154.286C55.8623 155.156 57.3102 156.115 58.7321 157.156C60.1591 158.203 61.5654 159.328 62.9404 160.531C64.3206 161.74 65.6696 163.021 66.9873 164.38C68.305 165.74 69.581 167.167 70.8258 168.667C72.0706 170.161 73.2685 171.719 74.4248 173.338C75.581 174.963 76.6904 176.635 77.7477 178.365C78.805 180.094 79.8154 181.87 80.7633 183.693C81.7164 185.516 82.6123 187.375 83.4456 189.266C84.2789 191.161 85.055 193.089 85.7633 195.036Z" fill="#D2A48F"/>
<path d="M209.706 71.422C210.164 74.0418 210.539 76.6668 210.831 79.3074C211.117 81.9428 211.315 84.5782 211.425 87.2032C211.539 89.8334 211.56 92.448 211.492 95.0418C211.425 97.6407 211.268 100.208 211.024 102.745C210.784 105.281 210.451 107.781 210.029 110.234C209.612 112.693 209.107 115.094 208.518 117.443C207.925 119.792 207.253 122.078 206.498 124.302C205.742 126.521 204.909 128.667 203.992 130.74C203.081 132.807 202.091 134.792 201.029 136.693C199.966 138.594 198.836 140.401 197.633 142.115C196.43 143.828 195.164 145.438 193.836 146.943C192.508 148.453 191.123 149.849 189.68 151.136C188.232 152.427 186.742 153.599 185.196 154.656C183.654 155.714 182.065 156.646 180.435 157.458C178.805 158.276 177.138 158.964 175.44 159.531C173.737 160.094 172.013 160.531 170.258 160.839C168.503 161.151 166.732 161.328 164.94 161.38C163.149 161.432 161.352 161.354 159.539 161.146C157.727 160.938 155.92 160.604 154.107 160.141C152.295 159.672 150.487 159.083 148.69 158.37C146.893 157.651 145.112 156.813 143.347 155.849C141.581 154.886 139.841 153.807 138.128 152.609C136.414 151.412 134.732 150.104 133.081 148.677C131.435 147.255 129.826 145.729 128.258 144.094C126.69 142.464 125.175 140.729 123.706 138.901C122.232 137.073 120.821 135.156 119.461 133.151C118.102 131.146 116.805 129.063 115.571 126.896C114.336 124.734 113.17 122.5 112.076 120.198C110.977 117.896 109.951 115.537 108.998 113.12C108.05 110.703 107.175 108.24 106.378 105.734C105.586 103.224 104.873 100.682 104.242 98.1043C103.607 95.5313 103.06 92.9324 102.602 90.3126C102.138 87.6928 101.763 85.0678 101.477 82.4272C101.185 79.7918 100.987 77.1563 100.878 74.5313C100.763 71.9011 100.742 69.2865 100.81 66.6928C100.878 64.0938 101.034 61.5261 101.279 58.9897C101.524 56.4532 101.852 53.9532 102.274 51.5001C102.69 49.0417 103.196 46.6407 103.789 44.2917C104.378 41.9428 105.05 39.6563 105.805 37.4324C106.56 35.2136 107.399 33.0678 108.31 30.9949C109.222 28.9272 110.211 26.9376 111.274 25.0365C112.336 23.1407 113.472 21.3334 114.67 19.6199C115.873 17.9063 117.138 16.297 118.466 14.7917C119.795 13.2813 121.185 11.8855 122.628 10.5938C124.071 9.30737 125.565 8.1355 127.107 7.07821C128.654 6.02092 130.237 5.08862 131.867 4.27092C133.498 3.45842 135.164 2.77091 136.867 2.20321C138.565 1.64071 140.295 1.20321 142.045 0.895915C143.8 0.583415 145.571 0.406332 147.362 0.354248C149.154 0.302164 150.956 0.380289 152.763 0.588623C154.576 0.796956 156.388 1.13029 158.201 1.59383C160.013 2.05737 161.815 2.65112 163.612 3.36467C165.409 4.08342 167.19 4.92196 168.956 5.8855C170.722 6.84383 172.461 7.92716 174.175 9.12508C175.888 10.323 177.571 11.6303 179.222 13.0522C180.873 14.4792 182.477 16.0053 184.045 17.6407C185.612 19.2709 187.128 21.0001 188.602 22.8334C190.071 24.6615 191.482 26.5782 192.841 28.5834C194.201 30.5886 195.498 32.672 196.732 34.8386C197.966 37.0001 199.133 39.2345 200.232 41.5365C201.326 43.8386 202.352 46.198 203.305 48.6147C204.253 51.0313 205.128 53.4949 205.925 56.0001C206.716 58.5105 207.43 61.0522 208.065 63.6303C208.696 66.2032 209.242 68.8022 209.706 71.422Z" fill="#D2A48F"/>
<path d="M436.305 458.792C417.242 482.656 384.492 490.62 353.482 488.781H353.206C344.696 488.307 336.357 487.011 328.42 485.172C297.982 478.052 271.227 452.318 243.654 449.63C242.086 449.458 240.519 449.359 238.925 449.359C237.357 449.359 235.789 449.458 234.196 449.63C206.623 452.318 179.966 478.026 149.43 485.172C141.466 487.011 133.154 488.307 124.644 488.781H124.367C93.3571 490.62 60.6071 482.682 41.5446 458.792C20.7112 432.88 19.6175 388.458 47.3675 363.396C69.9404 342.938 101.123 334.052 118.144 307.599C133.701 283.531 136.56 253.568 152.836 229.875C169.862 205.089 199.378 195.255 228.248 193.589C229.914 193.49 231.482 193.417 233.149 193.318C235.091 193.214 237.034 193.214 238.899 193.214C240.94 193.214 243.055 193.214 245.097 193.318L250.097 193.589C279.617 195.156 310.623 203.87 327.003 230.151C342.456 254.865 343.649 285.948 360.399 310.011C383.248 342.693 408.883 343.886 430.456 363.396C458.232 388.484 457.138 432.88 436.305 458.792Z" fill="#D2A48F"/>
<path d="M364.133 87.9689C356.742 130.25 331.383 161.537 306.393 160.042C282.326 153.469 266.972 123.208 268.466 87.1199C268.565 85.3543 268.638 83.6095 268.841 81.8438C269.112 78.4116 269.586 74.9011 270.232 71.3907C270.706 68.8022 271.253 66.3126 271.8 63.8022C281.06 25.672 307.242 -1.35407 333.893 0.411558C358.211 6.98447 371.722 45.3126 364.133 87.9689Z" fill="#FFD7A3"/>
<path d="M102.492 90.3542C110.357 134.505 140.617 166.063 170.237 160.885C171.357 160.714 172.451 160.417 173.472 160.068C197.534 153.495 212.894 123.234 211.399 87.1459C211.3 85.3803 211.227 83.6355 211.024 81.8698C210.753 78.4375 210.279 74.9271 209.633 71.4167C209.159 68.8282 208.612 66.3386 208.065 63.8282C198.831 25.6719 172.623 -1.32809 145.992 0.411497C144.701 0.510455 143.305 0.58858 142.013 0.885454C112.399 6.1615 94.7268 46.1303 102.492 90.3542Z" fill="#D2A48F"/>
<path d="M115.732 87.9688C123.123 130.25 148.482 161.537 173.472 160.042C197.534 153.469 212.894 123.208 211.399 87.1198C211.3 85.3542 211.227 83.6094 211.024 81.8438C210.753 78.4115 210.279 74.9011 209.633 71.3907C209.159 68.8021 208.612 66.3125 208.065 63.8021C198.831 25.6719 172.623 -1.32809 145.992 0.411498C121.654 6.98441 108.138 45.3125 115.732 87.9688Z" fill="#FFD7A3"/>
<path d="M459.727 220.37C448.154 252.026 424.383 272.656 405.498 267.927C405.498 267.927 405.399 268.026 405.399 267.828C387.18 258.943 379.862 231.469 387.628 202.672C388.274 200.182 389.123 197.594 390.039 194.984C390.69 193.214 391.435 191.474 392.081 189.708C404.477 161.385 428.539 143.99 448.899 149.089C466.295 157.729 471.201 188.734 459.727 220.37Z" fill="#FFD7A3"/>
<path d="M5.50285 224.078C17.4508 257.026 45.0237 277.188 67.1279 269.146C68.0497 268.776 68.9664 268.401 69.9143 267.953C69.9143 267.953 70.0133 268.052 70.0133 267.854C88.232 258.969 95.5497 231.495 87.7841 202.698C87.1383 200.208 86.2893 197.62 85.3674 195.01C84.7216 193.24 83.9768 191.5 83.3258 189.734C70.9351 161.432 46.8674 144.036 26.5081 149.115C25.5914 149.292 24.6695 149.589 23.7216 149.938C1.69556 158 -6.43986 191.224 5.50285 224.078Z" fill="#D2A48F"/>
<path d="M15.6852 220.37C27.2581 252.026 51.0237 272.656 69.9143 267.927C69.9143 267.927 70.0133 268.026 70.0133 267.828C88.232 258.943 95.5498 231.469 87.7841 202.672C87.1383 200.182 86.2893 197.594 85.3675 194.984C84.7216 193.214 83.9768 191.474 83.3258 189.708C70.9352 161.432 46.8675 144.037 26.5081 149.115C9.11225 157.729 4.21121 188.734 15.6852 220.37Z" fill="#FFD7A3"/>
<path d="M410.675 458.792C397.06 478.328 375.508 487.188 353.482 488.781H353.206C344.696 488.307 336.357 487.011 328.42 485.172C297.982 478.052 271.227 452.318 243.654 449.63C242.086 449.458 240.519 449.359 238.925 449.359C237.357 449.359 235.789 449.458 234.196 449.63C206.623 452.318 179.966 478.026 149.43 485.172C141.466 487.011 133.154 488.307 124.644 488.781H124.367C102.341 487.214 80.7893 478.328 67.1748 458.792C49.1331 432.88 48.1123 388.458 72.2529 363.396C91.8623 342.938 119.065 334.052 133.873 307.599C147.289 283.531 149.878 253.568 164.039 229.875C178.571 205.635 203.56 195.729 228.248 193.589C229.914 193.49 231.482 193.417 233.149 193.318C235.091 193.214 237.034 193.214 238.899 193.214C240.94 193.214 243.055 193.214 245.097 193.318L250.097 193.589C275.357 195.531 301.539 204.417 315.529 230.151C328.94 254.865 330.06 285.948 344.67 310.011C364.482 342.693 386.779 343.886 405.571 363.396C429.737 388.484 428.716 432.88 410.675 458.792Z" fill="#FFD7A3"/>
<path d="M264.112 359.339V396.672C264.112 398.016 263.013 399.109 261.67 399.109H213.763C212.42 399.109 211.326 398.016 211.326 396.672V359.339H173.993C172.649 359.339 171.555 358.245 171.555 356.901V309.016C171.555 307.672 172.649 306.578 173.993 306.578H211.326V269.245C211.326 267.901 212.42 266.807 213.763 266.807H261.649C262.993 266.807 264.086 267.901 264.086 269.245V306.578H301.414C302.758 306.578 303.857 307.672 303.857 309.016V356.901C303.857 358.245 302.758 359.339 301.414 359.339H264.112Z" fill="#FEFAF0"/>
</svg>
