<svg width="25" height="25" viewBox="0 0 25 25" fill="none" xmlns="http://www.w3.org/2000/svg">
<path d="M1.72645 9.86172C1.72645 9.86172 0.567334 8.32057 1.08192 7.7C1.59624 7.07917 2.91864 9.86172 2.91864 9.86172H1.72645Z" fill="#D2D5D8"/>
<path d="M8.61902 3.7974C8.61902 3.7974 8.27084 1.90104 9.00808 1.57578C9.74558 1.25 9.68594 4.33021 9.68594 4.33021L8.61902 3.7974Z" fill="#D2D5D8"/>
<path d="M23.5067 10.1513C23.5067 10.1513 24.6653 8.61041 24.1512 7.98958C23.6366 7.36901 22.3142 10.1513 22.3142 10.1513H23.5067Z" fill="#D2D5D8"/>
<path d="M17.4111 3.7974C17.4111 3.7974 17.7593 1.90104 17.0218 1.57578C16.2843 1.25 16.3439 4.33021 16.3439 4.33021L17.4111 3.7974Z" fill="#D2D5D8"/>
<path d="M24.8232 12.2591C24.8062 11.9438 24.7578 11.6357 24.676 11.344C24.4568 10.5596 24.0101 9.8448 23.418 9.28751C22.7802 8.68725 21.8669 8.49115 21.2818 7.85782C20.7289 7.25912 20.8237 6.45573 20.4427 5.8073C20.0534 5.14454 19.5633 4.54245 18.9674 4.05469C17.8141 3.1099 16.2445 2.60105 14.8104 3.1974C14.4115 3.36329 14.0336 3.5823 13.6195 3.70521C13.0456 3.87605 12.6651 3.7586 12.1859 3.46563C10.5828 2.48516 8.39843 2.97605 7.02343 4.13047C6.26249 4.76902 5.75781 5.57032 5.50156 6.5198C5.37057 7.00391 5.19921 7.51719 4.79687 7.81641C4.34557 8.15235 3.68176 8.06745 3.16145 8.23568C1.86614 8.65443 0.909889 9.81485 0.444785 11.0607C0.301035 11.4464 0.211972 11.849 0.180462 12.2576C0.0981703 13.3234 0.409108 14.3635 1.05676 15.1865C1.3638 15.5763 1.74296 15.907 2.16718 16.1641C2.59374 16.4224 3.24166 16.4344 3.48697 16.9229C3.59973 17.1479 3.62682 17.405 3.64635 17.6557C3.77421 19.2841 4.0302 20.582 5.19895 21.8029C5.77447 22.4034 6.47473 22.8792 7.23906 23.206C8.09817 23.5737 8.9026 23.6758 9.83437 23.6635C11.37 23.643 12.8875 23.6005 14.4208 23.649C17.569 23.7484 21.4575 21.9451 21.4497 18.3398C21.4487 17.9232 21.3935 17.4951 21.5185 17.0977C21.7203 16.4557 22.269 16.4831 22.775 16.2302C24.2393 15.4987 24.906 13.8326 24.8232 12.2591Z" fill="#EDB773"/>
<path d="M12.7298 11.8859C11.4736 11.9268 10.2324 12.4068 9.08139 13.2164C7.91811 14.0349 6.64389 15.1771 6.71368 16.9328C6.74597 17.7451 7.08946 18.5857 7.60743 19.13C8.23764 19.7917 9.07228 19.7596 9.82774 19.3867C10.46 19.0747 11.0007 18.5505 11.5551 18.094C12.2572 17.5164 13.1986 17.5164 13.9004 18.094C15.1053 19.0857 17.103 20.1547 18.2887 18.5284C19.8874 16.3362 17.3108 13.6253 15.7397 12.6901C14.7522 12.1026 13.7363 11.8534 12.7298 11.8859Z" fill="#705449"/>
<path d="M18.4982 7.94271C18.5571 8.46459 18.4388 9.00026 18.1164 9.43828C17.5073 10.2659 16.2172 10.5833 15.2662 10.0268C14.3693 9.50157 14.0115 8.4099 14.0735 7.50469C14.1313 6.66537 14.7266 5.72735 15.713 5.52604C16.9084 5.28282 17.9722 6.42735 18.3331 7.30261C18.418 7.50782 18.4737 7.72422 18.4982 7.94271Z" fill="#705449"/>
<path d="M22.3092 12.4536C22.3407 12.8628 22.2334 13.2784 21.9694 13.6138C21.4712 14.2474 20.4543 14.468 19.7267 14.0125C19.0402 13.5833 18.7905 12.7224 18.8639 12.0167C18.9321 11.362 19.423 10.6417 20.1993 10.506C21.1397 10.3414 21.9397 11.2586 22.1978 11.95C22.2582 12.1122 22.2957 12.2823 22.3092 12.4536Z" fill="#705449"/>
<path d="M2.7158 12.4536C2.68429 12.8628 2.79132 13.2784 3.05538 13.6138C3.55382 14.2474 4.57049 14.468 5.29835 14.0125C5.98481 13.5833 6.23429 12.7224 6.16059 12.0167C6.09262 11.362 5.60174 10.6417 4.82543 10.506C3.88481 10.3414 3.08533 11.2586 2.82726 11.95C2.76658 12.1122 2.72882 12.2823 2.7158 12.4536Z" fill="#705449"/>
<path d="M11.9646 8.69401C11.7935 9.19636 11.4521 9.65156 10.9651 9.9474C10.0446 10.507 8.71488 10.3654 8.07634 9.53021C7.47452 8.74245 7.61593 7.61276 8.06462 6.79714C8.48103 6.04115 9.43676 5.37448 10.4355 5.52136C11.6454 5.69948 12.1334 7.11615 12.0888 8.04662C12.0787 8.26511 12.0362 8.48386 11.9646 8.69401Z" fill="#705449"/>
<path d="M10.8058 13.607C11.0215 13.9716 10.6045 14.7419 9.87432 15.3279C9.14411 15.9135 8.37744 16.0924 8.16156 15.7279C7.94593 15.3633 8.36286 14.5927 9.09307 14.0073C9.82327 13.4214 10.5899 13.2422 10.8058 13.607Z" fill="#7B6157"/>
<path d="M4.60676 11.3195C4.78958 11.5849 4.63411 12.0091 4.25963 12.2672C3.88489 12.5253 3.43333 12.519 3.25051 12.2536C3.0677 11.9883 3.22291 11.5638 3.59739 11.306C3.97213 11.0479 4.42395 11.0539 4.60676 11.3195Z" fill="#7B6157"/>
<path d="M9.96975 6.25026C10.1526 6.51563 9.99762 6.94011 9.62288 7.19818C9.2484 7.45599 8.79631 7.45 8.6135 7.18438C8.43069 6.91901 8.58616 6.4948 8.96064 6.23672C9.33538 5.97865 9.78694 5.9849 9.96975 6.25026Z" fill="#7B6157"/>
<path d="M16.2903 6.1948C16.4731 6.46016 16.3176 6.88464 15.9429 7.14246C15.5687 7.40053 15.1166 7.3948 14.934 7.12917C14.751 6.86381 14.9062 6.43933 15.2809 6.18126C15.6554 5.92318 16.1075 5.92943 16.2903 6.1948Z" fill="#7B6157"/>
<path d="M20.7718 11.076C20.9546 11.3414 20.7994 11.7656 20.4249 12.0237C20.0504 12.2818 19.5983 12.2755 19.4155 12.0102C19.2327 11.7448 19.3882 11.3206 19.7626 11.0625C20.1374 10.8044 20.5889 10.8107 20.7718 11.076Z" fill="#7B6157"/>
<path d="M12.8679 13.3026C12.8679 12.8635 12.5619 12.5073 12.1848 12.5073C11.8074 12.5073 11.5017 12.8635 11.5017 13.3026C11.5017 13.7419 11.8074 14.0979 12.1848 14.0979C12.5619 14.0979 12.8679 13.7419 12.8679 13.3026Z" fill="#7B6157"/>
</svg>
