<svg xmlns="http://www.w3.org/2000/svg" xmlns:xlink="http://www.w3.org/1999/xlink" width="500" zoomAndPan="magnify" viewBox="0 0 375 374.999991" height="500" preserveAspectRatio="xMidYMid meet" version="1.0"><path fill="#f4f6f1" d="M 374.652344 180.125 C 375 186.753906 372.207031 192.164062 366.972656 196.351562 C 363.832031 198.792969 360.34375 200.710938 356.675781 202.457031 C 354.410156 203.503906 351.964844 204.722656 350.394531 206.816406 C 347.429688 210.480469 343.414062 212.574219 339.054688 213.445312 C 332.421875 215.015625 328.410156 218.679688 326.488281 225.136719 C 324.917969 230.542969 321.601562 234.902344 316.890625 238.042969 C 316.195312 238.566406 315.496094 238.917969 314.972656 239.441406 C 315.671875 239.789062 316.367188 240.136719 317.066406 240.488281 C 320.554688 242.230469 323.695312 242.753906 327.363281 243.277344 C 330.328125 243.800781 332.769531 243.625 335.214844 245.71875 C 337.484375 247.8125 337.65625 249.90625 338.179688 252.871094 C 338.878906 256.363281 338.878906 256.886719 341.148438 259.152344 C 342.367188 260.199219 343.242188 260.546875 344.289062 261.769531 C 346.382812 264.039062 347.429688 267.179688 347.253906 270.316406 C 347.078125 272.585938 346.207031 274.15625 346.207031 276.421875 C 346.207031 280.609375 346.554688 278.167969 348.300781 280.960938 C 352.140625 287.414062 352.839844 292.472656 348.300781 298.929688 C 344.289062 304.683594 345.335938 303.289062 347.429688 308.871094 C 348.652344 312.011719 347.953125 314.628906 347.078125 317.769531 C 346.382812 320.035156 344.636719 322.128906 343.9375 324.398438 C 343.9375 324.574219 343.765625 324.746094 343.765625 324.921875 C 346.03125 332.421875 347.429688 340.273438 339.226562 345.15625 C 339.054688 345.15625 339.054688 345.332031 338.878906 345.332031 C 335.386719 351.613281 325.964844 353.007812 319.335938 353.53125 C 312.179688 354.054688 304.851562 353.707031 297.695312 353.183594 C 292.285156 352.832031 286.878906 352.308594 281.46875 352.308594 C 275.882812 352.484375 271.347656 351.4375 267.683594 349.867188 C 259.832031 348.648438 252.675781 345.507812 253.023438 337.132812 C 253.023438 335.039062 254.421875 333.820312 254.59375 331.898438 C 254.769531 329.980469 253.199219 327.363281 252.851562 325.097656 C 252.675781 323.699219 252.675781 322.304688 252.675781 321.082031 C 250.058594 321.605469 247.441406 321.78125 244.648438 321.957031 C 238.019531 326.316406 230.515625 327.363281 222.488281 325.445312 C 220.742188 324.921875 218.996094 324.746094 217.425781 324.574219 C 210.796875 332.421875 200.5 331.898438 190.902344 329.109375 C 190.726562 329.109375 190.554688 328.933594 190.203125 328.933594 C 186.191406 331.027344 182.003906 332.421875 177.816406 333.296875 C 171.535156 334.867188 165.25 334.515625 159.492188 331.550781 C 152.339844 327.886719 144.660156 326.492188 136.632812 326.664062 C 137.855469 329.457031 138.378906 332.421875 137.855469 335.738281 C 137.503906 338.003906 135.933594 340.621094 136.109375 342.542969 C 136.285156 344.285156 136.632812 340.273438 136.632812 342.191406 C 136.980469 350.742188 129.828125 353.878906 121.976562 354.925781 C 118.3125 356.671875 113.773438 357.542969 108.191406 357.371094 C 102.78125 357.195312 97.371094 357.71875 91.960938 358.242188 C 84.808594 358.765625 77.476562 359.113281 70.324219 358.589844 C 63.691406 358.066406 54.269531 356.671875 50.78125 350.390625 C 50.605469 350.390625 50.605469 350.21875 50.429688 350.21875 C 42.230469 345.332031 44.671875 343.066406 46.941406 335.386719 C 46.941406 335.214844 46.941406 335.039062 46.765625 334.863281 C 46.066406 332.597656 44.324219 330.503906 43.625 328.234375 C 42.578125 325.269531 42.054688 322.480469 43.277344 319.339844 C 45.542969 313.757812 46.417969 315.152344 42.402344 309.394531 C 38.039062 302.941406 38.738281 297.882812 42.402344 291.425781 C 44.148438 288.636719 44.496094 291.078125 44.496094 286.890625 C 44.496094 284.621094 43.625 283.054688 43.449219 280.785156 C 43.101562 277.644531 44.324219 274.503906 46.417969 272.238281 C 47.464844 271.015625 48.335938 270.839844 49.558594 269.621094 C 52 267.351562 52 266.65625 52.523438 263.339844 C 53.046875 260.546875 53.222656 258.28125 55.492188 256.1875 C 56.1875 255.488281 56.886719 255.140625 57.585938 254.792969 C 57.585938 254.09375 57.410156 253.394531 57.410156 252.699219 C 56.886719 245.023438 53.570312 236.472656 46.941406 233.683594 C 41.355469 231.242188 35.421875 230.195312 29.140625 229.496094 C 20.589844 228.625 13.4375 228.273438 9.25 220.949219 C 7.503906 218.15625 6.632812 215.191406 6.804688 211.875 C 6.980469 208.910156 6.457031 206.121094 4.886719 203.675781 C 1.222656 198.445312 0.175781 192.859375 0.175781 186.40625 C 0 183.09375 0.523438 179.429688 1.746094 175.9375 C 2.964844 171.578125 6.632812 166.867188 6.632812 162.332031 C 5.410156 150.992188 4.011719 146.109375 5.234375 137.910156 C 5.585938 133.722656 4.011719 124.476562 13.609375 120.636719 C 21.464844 117.847656 23.558594 109.648438 27.222656 103.367188 C 33.328125 93.25 41.007812 92.375 52.351562 88.539062 C 57.410156 86.792969 61.773438 77.375 63.867188 72.488281 C 67.007812 64.640625 73.640625 61.847656 81.140625 60.625 C 83.585938 60.277344 86.027344 60.277344 88.472656 60.625 C 93.53125 61.5 98.070312 60.101562 102.429688 58.359375 C 105.222656 57.484375 107.144531 55.742188 107.667969 52.253906 C 108.015625 48.9375 109.238281 45.625 110.808594 42.308594 C 113.425781 37.425781 117.265625 34.632812 122.671875 33.585938 C 127.910156 32.539062 133.316406 32.539062 138.378906 33.933594 C 145.707031 36.027344 151.816406 34.457031 157.222656 28.875 C 165.949219 20.152344 177.117188 17.1875 189.15625 16.140625 C 193.871094 15.792969 198.40625 16.664062 202.59375 18.933594 C 211.84375 24.339844 221.613281 24.863281 231.910156 22.421875 C 235.050781 21.722656 238.542969 21.375 241.855469 21.199219 C 247.964844 20.851562 253.546875 22.769531 258.609375 26.257812 C 267.683594 32.539062 275.1875 40.214844 279.722656 50.507812 C 281.816406 55.042969 284.785156 57.484375 289.84375 58.359375 C 297 59.578125 303.457031 62.71875 310.085938 65.683594 C 310.785156 66.035156 311.65625 66.382812 312.179688 66.90625 C 320.730469 73.1875 327.710938 81.039062 332.945312 90.632812 C 334.167969 92.898438 334.863281 95.34375 334.863281 97.960938 C 334.863281 104.066406 336.085938 106.160156 342.195312 108.25 C 346.730469 109.996094 351.09375 111.566406 355.105469 114.53125 C 365.925781 122.558594 370.464844 133.199219 368.019531 146.457031 C 366.972656 152.214844 366.972656 157.273438 369.941406 162.679688 C 372.90625 168.089844 374.300781 174.019531 374.652344 180.125 Z M 374.652344 180.125 " fill-opacity="1" fill-rule="nonzero"/><path fill="#030505" d="M 166.296875 216.238281 C 168.742188 212.921875 172.582031 211.875 176.417969 211.179688 C 182.351562 209.957031 187.585938 211.527344 192.296875 215.539062 C 194.742188 217.632812 196.835938 220.597656 196.835938 224.089844 C 196.835938 227.054688 195.265625 230.195312 192.820312 231.9375 C 190.378906 233.683594 190.203125 234.554688 187.585938 235.425781 C 183.050781 236.996094 173.800781 237.519531 169.613281 234.554688 C 167.867188 233.335938 166.472656 231.765625 165.601562 229.84375 C 163.332031 225.65625 163.332031 220.425781 166.296875 216.238281 Z M 231.734375 183.613281 C 229.117188 183.441406 226.5 183.441406 224.230469 184.835938 C 223.011719 185.535156 221.964844 186.582031 221.265625 187.628906 C 220.566406 188.675781 220.042969 189.722656 219.519531 190.769531 C 212.890625 209.085938 246.742188 210.480469 244.125 192.511719 C 243.425781 186.230469 237.144531 184.136719 231.734375 183.613281 Z M 138.726562 200.886719 L 138.902344 200.710938 C 140.820312 198.792969 141.867188 195.828125 141.867188 193.210938 C 141.867188 190.417969 140.296875 188.324219 138.378906 186.582031 C 130.351562 179.253906 109.761719 184.3125 115.867188 197.570312 C 117.613281 201.582031 121.976562 203.503906 126.164062 204.027344 C 130.175781 204.722656 135.410156 204.027344 138.726562 200.886719 Z M 138.726562 200.886719 " fill-opacity="1" fill-rule="nonzero"/><path fill="#e7eae4" d="M 139.773438 314.453125 C 139.773438 317.421875 137.855469 319.164062 136.285156 318.988281 C 138.554688 314.976562 138.554688 309.917969 135.238281 306.953125 C 135.410156 301.542969 134.015625 297.707031 130.175781 294.566406 C 130.003906 294.042969 129.828125 293.519531 129.480469 292.996094 C 131.574219 288.460938 132.445312 283.75 128.78125 279.039062 C 127.210938 276.773438 125.464844 274.679688 123.894531 272.761719 C 122.324219 270.839844 122.671875 266.132812 121.101562 263.863281 C 119.359375 261.421875 116.742188 260.023438 113.949219 259.152344 C 112.203125 258.628906 111.15625 258.804688 109.761719 257.757812 C 108.191406 256.710938 108.714844 255.839844 107.492188 254.441406 C 104.351562 250.429688 101.035156 250.082031 97.371094 250.257812 C 96.324219 249.210938 91.613281 251.476562 90.390625 250.953125 C 87.773438 248.859375 84.109375 248.6875 81.140625 250.082031 C 80.96875 249.90625 80.96875 249.734375 80.792969 249.558594 C 79.570312 246.417969 89.691406 246.070312 93.007812 245.894531 C 105.398438 245.371094 112.550781 249.734375 121.800781 261.070312 C 132.097656 272.933594 140.125 295.613281 139.773438 314.453125 Z M 253.199219 296.3125 C 254.070312 294.390625 256.164062 292.648438 257.039062 290.902344 C 255.992188 292.820312 254.59375 288.285156 254.421875 286.714844 C 253.722656 280.085938 260.703125 276.421875 261.402344 270.316406 C 262.097656 264.386719 262.449219 259.851562 267.507812 256.011719 C 269.425781 254.617188 271.871094 253.917969 273.789062 252.523438 C 276.234375 250.777344 277.804688 248.335938 280.246094 246.59375 C 284.957031 243.625 289.144531 244.847656 294.207031 244.324219 C 299.617188 243.800781 303.804688 240.488281 309.214844 239.613281 C 309.386719 239.441406 309.5625 239.089844 309.5625 238.742188 C 310.785156 235.601562 299.441406 237.171875 295.953125 236.996094 C 283.5625 236.472656 272.394531 244.148438 264.367188 253.570312 C 254.246094 265.257812 250.582031 284.449219 250.757812 303.113281 C 251.628906 300.324219 252.5 298.054688 253.199219 296.3125 Z M 253.199219 296.3125 " fill-opacity="1" fill-rule="nonzero"/><path fill="#eab2bb" d="M 109.238281 300.324219 C 112.027344 308.871094 101.558594 314.804688 93.882812 313.234375 C 91.960938 312.882812 90.214844 312.359375 88.121094 312.710938 C 85.332031 313.234375 82.886719 314.453125 80.09375 314.804688 C 76.429688 315.328125 72.070312 314.976562 69.800781 312.1875 C 67.53125 309.394531 67.707031 304.859375 69.277344 301.71875 C 70.324219 299.625 72.070312 298.230469 73.464844 296.660156 C 74.859375 295.089844 75.734375 293.519531 76.257812 291.601562 C 77.304688 288.113281 78.175781 284.097656 81.664062 282.007812 C 84.632812 280.085938 88.996094 279.738281 91.960938 281.484375 C 93.882812 282.703125 94.578125 284.621094 95.625 286.542969 C 96.671875 288.285156 98.070312 289.683594 99.8125 290.902344 C 103.304688 293.34375 107.144531 295.789062 108.886719 299.625 C 109.0625 299.800781 109.238281 300.148438 109.238281 300.324219 Z M 87.597656 274.503906 C 88.121094 275.203125 88.296875 275.726562 88.644531 276.25 C 88.820312 276.597656 89.34375 276.773438 89.691406 276.945312 C 92.308594 278.167969 95.976562 276.25 96.671875 273.980469 C 97.371094 271.714844 97.546875 269.445312 97.195312 267.179688 C 97.023438 264.910156 94.578125 261.769531 90.914062 262.292969 C 90.042969 262.46875 89.167969 262.640625 88.644531 263.515625 C 86.378906 267.003906 86.027344 270.839844 87.597656 274.503906 Z M 99.988281 282.355469 C 100.859375 284.796875 102.605469 285.667969 104.875 286.191406 C 105.921875 286.367188 107.839844 285.667969 108.363281 284.621094 C 109.585938 282.53125 110.457031 280.261719 109.933594 277.992188 C 109.761719 277.121094 109.933594 276.25 109.761719 275.550781 C 109.585938 274.855469 109.238281 273.980469 108.714844 273.457031 C 108.191406 272.761719 107.492188 272.238281 106.792969 271.886719 C 105.222656 270.839844 103.128906 271.015625 101.90625 272.410156 C 101.382812 273.109375 100.6875 273.632812 100.164062 274.332031 C 99.640625 275.027344 99.289062 275.898438 99.117188 276.597656 C 98.765625 278.691406 98.765625 280.785156 99.988281 282.355469 Z M 79.921875 278.691406 C 80.445312 278.515625 80.96875 278.167969 81.492188 277.820312 C 82.015625 277.46875 82.363281 276.945312 82.714844 276.421875 C 83.410156 275.027344 83.585938 273.457031 83.238281 272.0625 C 82.714844 268.921875 81.316406 266.132812 78.175781 264.5625 C 76.953125 263.863281 75.734375 264.210938 74.6875 265.257812 C 73.8125 266.304688 73.289062 267.351562 73.117188 268.574219 C 72.59375 272.0625 73.117188 275.203125 74.6875 278.167969 C 75.382812 279.5625 76.78125 279.738281 78 279.390625 C 78.523438 279.214844 79.222656 279.039062 79.921875 278.691406 Z M 68.230469 291.425781 C 73.8125 294.042969 74.335938 285.496094 73.640625 282.53125 C 73.117188 280.4375 71.894531 278.691406 70.148438 277.46875 C 69.277344 276.945312 68.230469 276.421875 67.007812 276.597656 C 65.785156 276.773438 64.738281 277.644531 64.214844 278.691406 C 63.34375 280.261719 63.34375 281.832031 63.867188 283.402344 C 64.390625 284.449219 64.566406 285.84375 65.089844 287.066406 C 65.613281 288.984375 66.484375 290.554688 68.230469 291.425781 Z M 281.816406 288.984375 C 283.5625 284.972656 287.402344 282.53125 290.890625 280.261719 C 292.636719 279.039062 294.03125 277.820312 295.078125 275.898438 C 296.125 273.980469 297 272.0625 298.742188 270.839844 C 301.710938 268.921875 306.074219 269.445312 309.039062 271.363281 C 312.527344 273.632812 313.574219 277.46875 314.449219 280.960938 C 314.972656 282.878906 315.84375 284.449219 317.242188 286.019531 C 318.8125 287.589844 320.554688 288.984375 321.429688 291.078125 C 323 294.390625 323.171875 298.753906 320.90625 301.542969 C 318.636719 304.511719 314.273438 304.683594 310.609375 304.160156 C 307.816406 303.8125 305.199219 302.589844 302.582031 302.066406 C 300.488281 301.71875 298.742188 302.242188 296.824219 302.589844 C 288.972656 303.988281 278.5 298.230469 281.46875 289.683594 C 281.644531 289.683594 281.644531 289.332031 281.816406 288.984375 Z M 302.058594 252.871094 C 301.535156 252.175781 300.835938 251.824219 299.789062 251.652344 C 296.125 251.300781 293.683594 254.441406 293.507812 256.535156 C 293.335938 258.804688 293.507812 261.070312 294.03125 263.339844 C 294.730469 265.609375 298.394531 267.527344 301.011719 266.304688 C 301.359375 266.132812 301.710938 265.957031 302.058594 265.609375 C 302.40625 265.085938 302.757812 264.5625 303.105469 263.863281 C 304.851562 260.375 304.503906 256.535156 302.058594 252.871094 Z M 291.761719 266.132812 C 291.589844 265.257812 291.238281 264.5625 290.714844 263.863281 C 290.191406 263.164062 289.667969 262.46875 288.972656 261.945312 C 287.75 260.722656 285.65625 260.546875 284.085938 261.421875 C 283.386719 261.945312 282.691406 262.46875 282.167969 262.992188 C 281.644531 263.6875 281.292969 264.386719 281.117188 265.085938 C 280.945312 265.957031 281.117188 266.828125 280.945312 267.527344 C 280.59375 269.96875 281.46875 272.0625 282.515625 274.15625 C 283.039062 275.027344 284.785156 275.898438 286.003906 275.726562 C 288.273438 275.203125 290.019531 274.332031 290.890625 271.886719 C 291.9375 270.316406 292.113281 268.222656 291.761719 266.132812 Z M 312.878906 268.921875 C 314.097656 269.269531 315.496094 269.269531 316.195312 267.699219 C 317.765625 264.734375 318.289062 261.421875 317.765625 258.105469 C 317.589844 256.710938 317.066406 255.664062 316.195312 254.792969 C 315.148438 253.570312 313.925781 253.394531 312.703125 254.09375 C 309.5625 255.664062 308.167969 258.457031 307.644531 261.59375 C 307.46875 262.992188 307.46875 264.5625 308.167969 265.957031 C 308.515625 266.480469 308.863281 267.003906 309.386719 267.351562 C 309.910156 267.699219 310.433594 268.050781 310.957031 268.222656 C 311.65625 268.574219 312.179688 268.746094 312.878906 268.921875 Z M 325.792969 276.597656 C 326.140625 275.378906 326.488281 273.980469 327.011719 272.933594 C 327.710938 271.363281 327.535156 269.792969 326.664062 268.222656 C 326.140625 267.175781 325.09375 266.132812 323.871094 266.132812 C 322.648438 265.957031 321.601562 266.480469 320.730469 267.003906 C 318.8125 268.222656 317.589844 269.96875 317.242188 272.0625 C 316.542969 275.027344 317.066406 283.578125 322.648438 280.960938 C 324.394531 280.085938 325.265625 278.515625 325.792969 276.597656 Z M 325.792969 276.597656 " fill-opacity="1" fill-rule="nonzero"/></svg>