<svg xmlns="http://www.w3.org/2000/svg" xmlns:xlink="http://www.w3.org/1999/xlink" width="500" zoomAndPan="magnify" viewBox="0 0 375 374.999991" height="500" preserveAspectRatio="xMidYMid meet" version="1.0"><defs><clipPath id="dabf300556"><path d="M 43.140625 43.140625 L 178 43.140625 L 178 178 L 43.140625 178 Z M 43.140625 43.140625 " clip-rule="nonzero"/></clipPath><clipPath id="52c66d2958"><path d="M 240 43.140625 L 375 43.140625 L 375 178 L 240 178 Z M 240 43.140625 " clip-rule="nonzero"/></clipPath><clipPath id="cb14491e13"><path d="M 43.140625 240 L 178 240 L 178 375 L 43.140625 375 Z M 43.140625 240 " clip-rule="nonzero"/></clipPath><clipPath id="7125f3a60f"><path d="M 0 0 L 331.859375 0 L 331.859375 331.859375 L 0 331.859375 Z M 0 0 " clip-rule="nonzero"/></clipPath><clipPath id="606230d44f"><path d="M 0 6 L 325 6 L 325 331.859375 L 0 331.859375 Z M 0 6 " clip-rule="nonzero"/></clipPath><clipPath id="f81a8bb47f"><path d="M 0 119 L 331.859375 119 L 331.859375 331.859375 L 0 331.859375 Z M 0 119 " clip-rule="nonzero"/></clipPath><clipPath id="4969ee85b2"><path d="M 0 241 L 325 241 L 325 331.859375 L 0 331.859375 Z M 0 241 " clip-rule="nonzero"/></clipPath></defs><g clip-path="url(#dabf300556)"><path fill="#000000" d="M 167.589844 43.140625 L 92.171875 43.140625 C 90.566406 43.144531 88.96875 43.222656 87.371094 43.382812 C 85.773438 43.542969 84.1875 43.777344 82.613281 44.09375 C 81.039062 44.40625 79.480469 44.796875 77.945312 45.265625 C 76.410156 45.730469 74.902344 46.273438 73.417969 46.886719 C 71.933594 47.503906 70.484375 48.1875 69.070312 48.945312 C 67.65625 49.703125 66.28125 50.527344 64.945312 51.421875 C 63.609375 52.3125 62.324219 53.269531 61.082031 54.289062 C 59.839844 55.304688 58.652344 56.382812 57.519531 57.519531 C 56.382812 58.652344 55.304688 59.839844 54.289062 61.082031 C 53.269531 62.324219 52.3125 63.609375 51.421875 64.945312 C 50.527344 66.28125 49.703125 67.65625 48.945312 69.070312 C 48.1875 70.484375 47.503906 71.933594 46.886719 73.417969 C 46.273438 74.902344 45.730469 76.410156 45.265625 77.945312 C 44.796875 79.480469 44.40625 81.039062 44.09375 82.613281 C 43.777344 84.1875 43.542969 85.773438 43.382812 87.371094 C 43.222656 88.96875 43.144531 90.566406 43.140625 92.171875 L 43.140625 167.589844 C 43.140625 168.269531 43.207031 168.945312 43.339844 169.613281 C 43.472656 170.28125 43.671875 170.929688 43.929688 171.558594 C 44.191406 172.1875 44.511719 172.785156 44.890625 173.351562 C 45.269531 173.917969 45.699219 174.441406 46.179688 174.921875 C 46.660156 175.402344 47.183594 175.832031 47.75 176.210938 C 48.316406 176.589844 48.914062 176.910156 49.542969 177.167969 C 50.171875 177.429688 50.820312 177.625 51.488281 177.761719 C 52.15625 177.894531 52.832031 177.960938 53.511719 177.960938 C 54.191406 177.960938 54.867188 177.894531 55.535156 177.761719 C 56.203125 177.625 56.851562 177.429688 57.480469 177.167969 C 58.109375 176.910156 58.707031 176.589844 59.273438 176.210938 C 59.839844 175.832031 60.363281 175.402344 60.84375 174.921875 C 61.328125 174.441406 61.757812 173.917969 62.136719 173.351562 C 62.511719 172.785156 62.832031 172.1875 63.09375 171.558594 C 63.355469 170.929688 63.550781 170.28125 63.683594 169.613281 C 63.816406 168.945312 63.882812 168.269531 63.882812 167.589844 L 63.882812 92.171875 C 63.882812 91.246094 63.929688 90.324219 64.023438 89.402344 C 64.113281 88.480469 64.25 87.566406 64.429688 86.65625 C 64.613281 85.75 64.839844 84.851562 65.109375 83.964844 C 65.378906 83.078125 65.691406 82.207031 66.042969 81.351562 C 66.398438 80.496094 66.796875 79.660156 67.234375 78.84375 C 67.667969 78.027344 68.144531 77.234375 68.660156 76.464844 C 69.175781 75.695312 69.726562 74.949219 70.3125 74.234375 C 70.902344 73.519531 71.523438 72.832031 72.179688 72.179688 C 72.832031 71.523438 73.519531 70.902344 74.234375 70.3125 C 74.949219 69.726562 75.695312 69.175781 76.464844 68.660156 C 77.234375 68.144531 78.027344 67.667969 78.84375 67.234375 C 79.660156 66.796875 80.496094 66.398438 81.351562 66.042969 C 82.207031 65.691406 83.078125 65.378906 83.964844 65.109375 C 84.851562 64.839844 85.75 64.613281 86.65625 64.429688 C 87.566406 64.25 88.480469 64.113281 89.402344 64.023438 C 90.324219 63.929688 91.246094 63.882812 92.171875 63.882812 L 167.589844 63.882812 C 168.269531 63.882812 168.945312 63.816406 169.613281 63.683594 C 170.28125 63.550781 170.929688 63.355469 171.558594 63.09375 C 172.1875 62.832031 172.785156 62.511719 173.351562 62.136719 C 173.917969 61.757812 174.441406 61.328125 174.921875 60.84375 C 175.402344 60.363281 175.832031 59.839844 176.210938 59.273438 C 176.589844 58.707031 176.910156 58.109375 177.167969 57.480469 C 177.429688 56.851562 177.625 56.203125 177.761719 55.535156 C 177.894531 54.867188 177.960938 54.191406 177.960938 53.511719 C 177.960938 52.832031 177.894531 52.15625 177.761719 51.488281 C 177.625 50.820312 177.429688 50.171875 177.167969 49.542969 C 176.910156 48.914062 176.589844 48.316406 176.210938 47.75 C 175.832031 47.183594 175.402344 46.660156 174.921875 46.179688 C 174.441406 45.699219 173.917969 45.269531 173.351562 44.890625 C 172.785156 44.511719 172.1875 44.191406 171.558594 43.929688 C 170.929688 43.671875 170.28125 43.472656 169.613281 43.339844 C 168.945312 43.207031 168.269531 43.140625 167.589844 43.140625 Z M 167.589844 43.140625 " fill-opacity="1" fill-rule="nonzero"/></g><g clip-path="url(#52c66d2958)"><path fill="#000000" d="M 325.96875 43.140625 L 250.554688 43.140625 C 249.871094 43.140625 249.199219 43.207031 248.53125 43.339844 C 247.863281 43.472656 247.214844 43.671875 246.585938 43.929688 C 245.957031 44.191406 245.359375 44.511719 244.792969 44.890625 C 244.226562 45.269531 243.703125 45.699219 243.21875 46.179688 C 242.738281 46.660156 242.308594 47.183594 241.929688 47.75 C 241.550781 48.316406 241.234375 48.914062 240.972656 49.542969 C 240.710938 50.171875 240.515625 50.820312 240.382812 51.488281 C 240.25 52.15625 240.183594 52.832031 240.183594 53.511719 C 240.183594 54.191406 240.25 54.867188 240.382812 55.535156 C 240.515625 56.203125 240.710938 56.851562 240.972656 57.480469 C 241.234375 58.109375 241.550781 58.707031 241.929688 59.273438 C 242.308594 59.839844 242.738281 60.363281 243.21875 60.84375 C 243.703125 61.328125 244.226562 61.757812 244.792969 62.136719 C 245.359375 62.511719 245.957031 62.832031 246.585938 63.09375 C 247.214844 63.355469 247.863281 63.550781 248.53125 63.683594 C 249.199219 63.816406 249.871094 63.882812 250.554688 63.882812 L 325.96875 63.882812 C 326.894531 63.882812 327.816406 63.929688 328.738281 64.023438 C 329.660156 64.113281 330.578125 64.25 331.484375 64.429688 C 332.394531 64.613281 333.289062 64.839844 334.175781 65.109375 C 335.0625 65.378906 335.933594 65.691406 336.789062 66.042969 C 337.644531 66.398438 338.480469 66.796875 339.296875 67.234375 C 340.113281 67.667969 340.90625 68.144531 341.679688 68.660156 C 342.449219 69.175781 343.191406 69.726562 343.90625 70.3125 C 344.621094 70.902344 345.308594 71.523438 345.964844 72.179688 C 346.617188 72.832031 347.238281 73.519531 347.828125 74.234375 C 348.414062 74.949219 348.964844 75.695312 349.480469 76.464844 C 349.996094 77.234375 350.472656 78.027344 350.910156 78.84375 C 351.347656 79.660156 351.742188 80.496094 352.097656 81.351562 C 352.453125 82.207031 352.765625 83.078125 353.035156 83.964844 C 353.304688 84.851562 353.527344 85.75 353.710938 86.65625 C 353.890625 87.566406 354.027344 88.480469 354.121094 89.402344 C 354.210938 90.324219 354.257812 91.246094 354.257812 92.171875 L 354.257812 167.589844 C 354.257812 168.269531 354.324219 168.945312 354.457031 169.613281 C 354.589844 170.28125 354.789062 170.929688 355.046875 171.558594 C 355.308594 172.1875 355.628906 172.785156 356.007812 173.351562 C 356.386719 173.917969 356.816406 174.441406 357.296875 174.921875 C 357.777344 175.402344 358.300781 175.832031 358.867188 176.210938 C 359.433594 176.589844 360.03125 176.910156 360.660156 177.167969 C 361.289062 177.429688 361.9375 177.625 362.605469 177.761719 C 363.273438 177.894531 363.949219 177.960938 364.628906 177.960938 C 365.308594 177.960938 365.984375 177.894531 366.652344 177.761719 C 367.320312 177.625 367.96875 177.429688 368.597656 177.167969 C 369.226562 176.910156 369.824219 176.589844 370.390625 176.210938 C 370.957031 175.832031 371.480469 175.402344 371.960938 174.921875 C 372.445312 174.441406 372.875 173.917969 373.253906 173.351562 C 373.628906 172.785156 373.949219 172.1875 374.210938 171.558594 C 374.472656 170.929688 374.667969 170.28125 374.800781 169.613281 C 374.933594 168.945312 375 168.269531 375 167.589844 L 375 92.171875 C 375 90.566406 374.917969 88.96875 374.757812 87.371094 C 374.601562 85.773438 374.363281 84.1875 374.050781 82.613281 C 373.734375 81.039062 373.34375 79.480469 372.878906 77.945312 C 372.410156 76.410156 371.867188 74.902344 371.253906 73.417969 C 370.640625 71.933594 369.953125 70.484375 369.195312 69.070312 C 368.4375 67.65625 367.613281 66.28125 366.722656 64.945312 C 365.828125 63.609375 364.871094 62.324219 363.855469 61.082031 C 362.835938 59.839844 361.757812 58.652344 360.625 57.519531 C 359.488281 56.382812 358.300781 55.304688 357.058594 54.289062 C 355.820312 53.269531 354.53125 52.3125 353.195312 51.421875 C 351.863281 50.527344 350.488281 49.703125 349.070312 48.945312 C 347.65625 48.1875 346.207031 47.503906 344.722656 46.886719 C 343.242188 46.273438 341.730469 45.730469 340.195312 45.265625 C 338.660156 44.796875 337.105469 44.40625 335.53125 44.09375 C 333.957031 43.777344 332.371094 43.542969 330.773438 43.382812 C 329.175781 43.222656 327.574219 43.144531 325.96875 43.140625 Z M 325.96875 43.140625 " fill-opacity="1" fill-rule="nonzero"/></g><g clip-path="url(#cb14491e13)"><path fill="#000000" d="M 167.589844 354.257812 L 92.171875 354.257812 C 91.246094 354.257812 90.324219 354.210938 89.402344 354.121094 C 88.480469 354.027344 87.566406 353.890625 86.65625 353.710938 C 85.75 353.527344 84.851562 353.304688 83.964844 353.035156 C 83.078125 352.765625 82.207031 352.453125 81.351562 352.097656 C 80.496094 351.742188 79.660156 351.347656 78.84375 350.910156 C 78.027344 350.472656 77.234375 349.996094 76.464844 349.480469 C 75.695312 348.964844 74.949219 348.414062 74.234375 347.828125 C 73.519531 347.238281 72.832031 346.617188 72.179688 345.964844 C 71.523438 345.308594 70.902344 344.621094 70.3125 343.90625 C 69.726562 343.191406 69.175781 342.449219 68.660156 341.679688 C 68.144531 340.90625 67.667969 340.113281 67.234375 339.296875 C 66.796875 338.480469 66.398438 337.644531 66.042969 336.789062 C 65.691406 335.933594 65.378906 335.0625 65.109375 334.175781 C 64.839844 333.289062 64.613281 332.394531 64.429688 331.484375 C 64.25 330.578125 64.113281 329.660156 64.023438 328.738281 C 63.929688 327.816406 63.882812 326.894531 63.882812 325.96875 L 63.882812 250.554688 C 63.882812 249.871094 63.816406 249.199219 63.683594 248.53125 C 63.550781 247.863281 63.355469 247.214844 63.09375 246.585938 C 62.832031 245.957031 62.511719 245.359375 62.136719 244.792969 C 61.757812 244.226562 61.328125 243.703125 60.84375 243.21875 C 60.363281 242.738281 59.839844 242.308594 59.273438 241.929688 C 58.707031 241.550781 58.109375 241.234375 57.480469 240.972656 C 56.851562 240.710938 56.203125 240.515625 55.535156 240.382812 C 54.867188 240.25 54.191406 240.183594 53.511719 240.183594 C 52.832031 240.183594 52.15625 240.25 51.488281 240.382812 C 50.820312 240.515625 50.171875 240.710938 49.542969 240.972656 C 48.914062 241.234375 48.316406 241.550781 47.75 241.929688 C 47.183594 242.308594 46.660156 242.738281 46.179688 243.21875 C 45.699219 243.703125 45.269531 244.226562 44.890625 244.792969 C 44.511719 245.359375 44.191406 245.957031 43.929688 246.585938 C 43.671875 247.214844 43.472656 247.863281 43.339844 248.53125 C 43.207031 249.199219 43.140625 249.871094 43.140625 250.554688 L 43.140625 325.96875 C 43.144531 327.574219 43.222656 329.175781 43.382812 330.773438 C 43.542969 332.371094 43.777344 333.957031 44.09375 335.53125 C 44.40625 337.105469 44.796875 338.660156 45.265625 340.195312 C 45.730469 341.730469 46.273438 343.242188 46.886719 344.722656 C 47.503906 346.207031 48.1875 347.65625 48.945312 349.070312 C 49.703125 350.488281 50.527344 351.863281 51.421875 353.195312 C 52.3125 354.53125 53.269531 355.820312 54.289062 357.058594 C 55.304688 358.300781 56.382812 359.488281 57.519531 360.625 C 58.652344 361.757812 59.839844 362.835938 61.082031 363.855469 C 62.324219 364.875 63.609375 365.828125 64.945312 366.722656 C 66.28125 367.613281 67.65625 368.4375 69.070312 369.195312 C 70.484375 369.953125 71.933594 370.640625 73.417969 371.253906 C 74.902344 371.867188 76.410156 372.410156 77.945312 372.878906 C 79.480469 373.34375 81.039062 373.734375 82.613281 374.050781 C 84.1875 374.363281 85.773438 374.601562 87.371094 374.757812 C 88.96875 374.917969 90.566406 375 92.171875 375 L 167.589844 375 C 168.269531 375 168.945312 374.933594 169.613281 374.800781 C 170.28125 374.667969 170.929688 374.472656 171.558594 374.210938 C 172.1875 373.949219 172.785156 373.628906 173.351562 373.253906 C 173.917969 372.875 174.441406 372.445312 174.921875 371.960938 C 175.402344 371.480469 175.832031 370.957031 176.210938 370.390625 C 176.589844 369.824219 176.910156 369.226562 177.167969 368.597656 C 177.429688 367.96875 177.625 367.320312 177.761719 366.652344 C 177.894531 365.984375 177.960938 365.308594 177.960938 364.628906 C 177.960938 363.949219 177.894531 363.273438 177.761719 362.605469 C 177.625 361.9375 177.429688 361.289062 177.167969 360.660156 C 176.910156 360.03125 176.589844 359.433594 176.210938 358.867188 C 175.832031 358.300781 175.402344 357.777344 174.921875 357.296875 C 174.441406 356.816406 173.917969 356.386719 173.351562 356.007812 C 172.785156 355.628906 172.1875 355.308594 171.558594 355.046875 C 170.929688 354.789062 170.28125 354.589844 169.613281 354.457031 C 168.945312 354.324219 168.269531 354.257812 167.589844 354.257812 Z M 167.589844 354.257812 " fill-opacity="1" fill-rule="nonzero"/></g><path fill="#000000" d="M 364.628906 240.183594 C 363.949219 240.183594 363.273438 240.25 362.605469 240.382812 C 361.9375 240.515625 361.289062 240.710938 360.660156 240.972656 C 360.03125 241.234375 359.433594 241.550781 358.867188 241.929688 C 358.300781 242.308594 357.777344 242.738281 357.296875 243.21875 C 356.816406 243.703125 356.386719 244.226562 356.007812 244.792969 C 355.628906 245.359375 355.308594 245.957031 355.046875 246.585938 C 354.789062 247.214844 354.589844 247.863281 354.457031 248.53125 C 354.324219 249.199219 354.257812 249.871094 354.257812 250.554688 L 354.257812 325.96875 C 354.257812 326.894531 354.210938 327.816406 354.121094 328.738281 C 354.027344 329.660156 353.890625 330.578125 353.710938 331.484375 C 353.527344 332.394531 353.304688 333.289062 353.035156 334.175781 C 352.765625 335.0625 352.453125 335.933594 352.097656 336.789062 C 351.742188 337.644531 351.347656 338.480469 350.910156 339.296875 C 350.472656 340.113281 349.996094 340.90625 349.480469 341.679688 C 348.964844 342.449219 348.414062 343.191406 347.828125 343.90625 C 347.238281 344.621094 346.617188 345.308594 345.964844 345.964844 C 345.308594 346.617188 344.621094 347.238281 343.90625 347.828125 C 343.191406 348.414062 342.449219 348.964844 341.679688 349.480469 C 340.90625 349.996094 340.113281 350.472656 339.296875 350.910156 C 338.480469 351.347656 337.644531 351.742188 336.789062 352.097656 C 335.933594 352.453125 335.0625 352.765625 334.175781 353.035156 C 333.289062 353.304688 332.394531 353.527344 331.484375 353.710938 C 330.578125 353.890625 329.660156 354.027344 328.738281 354.121094 C 327.816406 354.210938 326.894531 354.257812 325.96875 354.257812 L 250.554688 354.257812 C 249.871094 354.257812 249.199219 354.324219 248.53125 354.457031 C 247.863281 354.589844 247.214844 354.789062 246.585938 355.046875 C 245.957031 355.308594 245.359375 355.628906 244.792969 356.007812 C 244.226562 356.386719 243.703125 356.816406 243.21875 357.296875 C 242.738281 357.777344 242.308594 358.300781 241.929688 358.867188 C 241.550781 359.433594 241.234375 360.03125 240.972656 360.660156 C 240.710938 361.289062 240.515625 361.9375 240.382812 362.605469 C 240.25 363.273438 240.183594 363.949219 240.183594 364.628906 C 240.183594 365.308594 240.25 365.984375 240.382812 366.652344 C 240.515625 367.320312 240.710938 367.96875 240.972656 368.597656 C 241.234375 369.226562 241.550781 369.824219 241.929688 370.390625 C 242.308594 370.957031 242.738281 371.480469 243.21875 371.960938 C 243.703125 372.445312 244.226562 372.875 244.792969 373.253906 C 245.359375 373.628906 245.957031 373.949219 246.585938 374.210938 C 247.214844 374.472656 247.863281 374.667969 248.53125 374.800781 C 249.199219 374.933594 249.871094 375 250.554688 375 L 325.96875 375 C 327.574219 375 329.175781 374.917969 330.773438 374.757812 C 332.371094 374.601562 333.957031 374.363281 335.53125 374.050781 C 337.105469 373.734375 338.660156 373.34375 340.195312 372.878906 C 341.730469 372.410156 343.242188 371.867188 344.722656 371.253906 C 346.207031 370.640625 347.65625 369.953125 349.070312 369.195312 C 350.488281 368.4375 351.863281 367.613281 353.195312 366.71875 C 354.53125 365.828125 355.820312 364.871094 357.058594 363.855469 C 358.300781 362.835938 359.488281 361.757812 360.625 360.625 C 361.757812 359.488281 362.835938 358.300781 363.855469 357.058594 C 364.871094 355.820312 365.828125 354.53125 366.722656 353.195312 C 367.613281 351.863281 368.4375 350.488281 369.195312 349.070312 C 369.953125 347.65625 370.640625 346.207031 371.253906 344.722656 C 371.867188 343.242188 372.410156 341.730469 372.878906 340.195312 C 373.34375 338.660156 373.734375 337.105469 374.050781 335.53125 C 374.363281 333.957031 374.601562 332.371094 374.757812 330.773438 C 374.917969 329.175781 375 327.574219 375 325.96875 L 375 250.554688 C 375 249.871094 374.933594 249.199219 374.800781 248.53125 C 374.667969 247.863281 374.472656 247.214844 374.210938 246.585938 C 373.949219 245.957031 373.628906 245.359375 373.253906 244.792969 C 372.875 244.226562 372.445312 243.703125 371.960938 243.21875 C 371.480469 242.738281 370.957031 242.308594 370.390625 241.929688 C 369.824219 241.550781 369.226562 241.234375 368.597656 240.972656 C 367.96875 240.710938 367.320312 240.515625 366.652344 240.382812 C 365.984375 240.25 365.308594 240.183594 364.628906 240.183594 Z M 364.628906 240.183594 " fill-opacity="1" fill-rule="nonzero"/><g clip-path="url(#7125f3a60f)"><path fill="#faf7f5" d="M 55.308594 0 L 276.550781 0 C 278.363281 0 280.167969 0.0898438 281.972656 0.265625 C 283.773438 0.445312 285.5625 0.710938 287.339844 1.0625 C 289.117188 1.417969 290.871094 1.855469 292.605469 2.382812 C 294.339844 2.90625 296.042969 3.515625 297.714844 4.210938 C 299.390625 4.902344 301.023438 5.675781 302.621094 6.53125 C 304.21875 7.382812 305.773438 8.316406 307.277344 9.320312 C 308.785156 10.328125 310.238281 11.40625 311.636719 12.554688 C 313.039062 13.703125 314.378906 14.917969 315.660156 16.199219 C 316.941406 17.480469 318.15625 18.820312 319.304688 20.222656 C 320.453125 21.621094 321.53125 23.074219 322.539062 24.582031 C 323.542969 26.085938 324.472656 27.636719 325.328125 29.234375 C 326.179688 30.832031 326.957031 32.46875 327.648438 34.140625 C 328.339844 35.816406 328.949219 37.519531 329.476562 39.253906 C 330.003906 40.984375 330.441406 42.742188 330.796875 44.519531 C 331.148438 46.292969 331.414062 48.082031 331.59375 49.886719 C 331.769531 51.6875 331.859375 53.496094 331.859375 55.308594 L 331.859375 276.550781 C 331.859375 278.363281 331.769531 280.167969 331.59375 281.972656 C 331.414062 283.773438 331.148438 285.5625 330.796875 287.339844 C 330.441406 289.117188 330.003906 290.871094 329.476562 292.605469 C 328.949219 294.339844 328.339844 296.042969 327.648438 297.714844 C 326.957031 299.390625 326.179688 301.023438 325.328125 302.621094 C 324.472656 304.21875 323.542969 305.773438 322.539062 307.277344 C 321.53125 308.785156 320.453125 310.238281 319.304688 311.636719 C 318.15625 313.039062 316.941406 314.378906 315.660156 315.660156 C 314.378906 316.941406 313.039062 318.15625 311.636719 319.304688 C 310.238281 320.453125 308.785156 321.53125 307.277344 322.539062 C 305.773438 323.542969 304.21875 324.472656 302.621094 325.328125 C 301.023438 326.179688 299.390625 326.957031 297.714844 327.648438 C 296.042969 328.339844 294.339844 328.949219 292.605469 329.476562 C 290.871094 330.003906 289.117188 330.441406 287.339844 330.796875 C 285.5625 331.148438 283.773438 331.414062 281.972656 331.59375 C 280.167969 331.769531 278.363281 331.859375 276.550781 331.859375 L 55.308594 331.859375 C 53.496094 331.859375 51.6875 331.769531 49.886719 331.59375 C 48.082031 331.414062 46.292969 331.148438 44.519531 330.796875 C 42.742188 330.441406 40.984375 330.003906 39.253906 329.476562 C 37.519531 328.949219 35.816406 328.339844 34.140625 327.648438 C 32.46875 326.957031 30.832031 326.179688 29.234375 325.328125 C 27.636719 324.472656 26.085938 323.542969 24.582031 322.539062 C 23.074219 321.53125 21.621094 320.453125 20.222656 319.304688 C 18.820312 318.15625 17.480469 316.941406 16.199219 315.660156 C 14.917969 314.378906 13.703125 313.039062 12.554688 311.636719 C 11.40625 310.238281 10.328125 308.785156 9.320312 307.277344 C 8.316406 305.773438 7.382812 304.21875 6.53125 302.621094 C 5.675781 301.023438 4.902344 299.390625 4.210938 297.714844 C 3.515625 296.042969 2.90625 294.339844 2.382812 292.605469 C 1.855469 290.871094 1.417969 289.117188 1.0625 287.339844 C 0.710938 285.5625 0.445312 283.773438 0.265625 281.972656 C 0.0898438 280.167969 0 278.363281 0 276.550781 L 0 55.308594 C 0 53.496094 0.0898438 51.6875 0.265625 49.886719 C 0.445312 48.082031 0.710938 46.292969 1.0625 44.519531 C 1.417969 42.742188 1.855469 40.984375 2.382812 39.253906 C 2.90625 37.519531 3.515625 35.816406 4.210938 34.140625 C 4.902344 32.46875 5.675781 30.832031 6.53125 29.234375 C 7.382812 27.636719 8.316406 26.085938 9.320312 24.582031 C 10.328125 23.074219 11.40625 21.621094 12.554688 20.222656 C 13.703125 18.820312 14.917969 17.480469 16.199219 16.199219 C 17.480469 14.917969 18.820312 13.703125 20.222656 12.554688 C 21.621094 11.40625 23.074219 10.328125 24.582031 9.320312 C 26.085938 8.316406 27.636719 7.382812 29.234375 6.53125 C 30.832031 5.675781 32.46875 4.902344 34.140625 4.210938 C 35.816406 3.515625 37.519531 2.90625 39.253906 2.382812 C 40.984375 1.855469 42.742188 1.417969 44.519531 1.0625 C 46.292969 0.710938 48.082031 0.445312 49.886719 0.265625 C 51.6875 0.0898438 53.496094 0 55.308594 0 Z M 55.308594 0 " fill-opacity="1" fill-rule="nonzero"/></g><g clip-path="url(#606230d44f)"><path fill="#f0e5e1" d="M 298.671875 309.738281 L 77.4375 309.738281 C 75.625 309.734375 73.816406 309.644531 72.015625 309.464844 C 70.214844 309.285156 68.425781 309.015625 66.648438 308.660156 C 64.875 308.308594 63.121094 307.867188 61.386719 307.339844 C 59.65625 306.8125 57.953125 306.203125 56.277344 305.507812 C 54.605469 304.8125 52.972656 304.039062 51.375 303.183594 C 49.777344 302.328125 48.226562 301.398438 46.722656 300.394531 C 45.214844 299.386719 43.765625 298.308594 42.363281 297.160156 C 40.964844 296.011719 39.625 294.796875 38.34375 293.515625 C 37.0625 292.234375 35.847656 290.894531 34.699219 289.496094 C 33.550781 288.09375 32.472656 286.640625 31.464844 285.136719 C 30.460938 283.632812 29.527344 282.082031 28.675781 280.484375 C 27.820312 278.886719 27.046875 277.253906 26.351562 275.578125 C 25.65625 273.90625 25.046875 272.203125 24.519531 270.472656 C 23.992188 268.738281 23.550781 266.984375 23.195312 265.207031 C 22.839844 263.433594 22.574219 261.644531 22.394531 259.84375 C 22.214844 258.039062 22.125 256.234375 22.121094 254.421875 L 22.121094 33.1875 C 22.152344 28.589844 22.757812 24.066406 23.933594 19.621094 C 25.105469 15.179688 26.816406 10.949219 29.058594 6.933594 C 11.84375 16.320312 0 34.351562 0 55.308594 L 0 276.550781 C 0.00390625 278.363281 0.09375 280.167969 0.273438 281.96875 C 0.453125 283.773438 0.71875 285.5625 1.074219 287.335938 C 1.429688 289.113281 1.867188 290.867188 2.394531 292.597656 C 2.921875 294.332031 3.535156 296.035156 4.226562 297.707031 C 4.921875 299.378906 5.695312 301.011719 6.550781 302.609375 C 7.402344 304.207031 8.335938 305.757812 9.339844 307.261719 C 10.347656 308.769531 11.425781 310.21875 12.574219 311.621094 C 13.722656 313.019531 14.9375 314.359375 16.21875 315.640625 C 17.5 316.921875 18.839844 318.136719 20.238281 319.285156 C 21.636719 320.433594 23.089844 321.511719 24.59375 322.515625 C 26.101562 323.523438 27.652344 324.453125 29.25 325.308594 C 30.84375 326.164062 32.480469 326.9375 34.152344 327.632812 C 35.824219 328.324219 37.527344 328.933594 39.261719 329.460938 C 40.992188 329.988281 42.746094 330.429688 44.523438 330.785156 C 46.296875 331.140625 48.085938 331.40625 49.886719 331.585938 C 51.691406 331.765625 53.496094 331.855469 55.308594 331.859375 L 276.550781 331.859375 C 297.492188 331.859375 315.539062 320.015625 324.921875 302.800781 C 320.910156 305.042969 316.679688 306.753906 312.234375 307.925781 C 307.789062 309.101562 303.269531 309.703125 298.671875 309.738281 Z M 298.671875 309.738281 " fill-opacity="1" fill-rule="nonzero"/></g><path fill="#ffcd69" d="M 287.613281 88.492188 C 287.613281 89.941406 287.542969 91.386719 287.402344 92.832031 C 287.261719 94.273438 287.046875 95.703125 286.765625 97.125 C 286.480469 98.546875 286.128906 99.953125 285.710938 101.339844 C 285.289062 102.726562 284.800781 104.089844 284.246094 105.425781 C 283.691406 106.765625 283.074219 108.074219 282.390625 109.351562 C 281.707031 110.628906 280.960938 111.871094 280.15625 113.078125 C 279.351562 114.28125 278.488281 115.445312 277.570312 116.566406 C 276.652344 117.6875 275.679688 118.757812 274.65625 119.78125 C 273.628906 120.808594 272.558594 121.78125 271.4375 122.699219 C 270.316406 123.617188 269.152344 124.480469 267.949219 125.285156 C 266.742188 126.089844 265.503906 126.835938 264.222656 127.519531 C 262.945312 128.203125 261.636719 128.820312 260.296875 129.375 C 258.960938 129.929688 257.597656 130.417969 256.210938 130.839844 C 254.824219 131.257812 253.417969 131.609375 251.996094 131.894531 C 250.578125 132.175781 249.144531 132.386719 247.703125 132.53125 C 246.261719 132.671875 244.8125 132.742188 243.363281 132.742188 C 241.914062 132.742188 240.46875 132.671875 239.027344 132.53125 C 237.585938 132.386719 236.152344 132.175781 234.730469 131.894531 C 233.3125 131.609375 231.90625 131.257812 230.519531 130.839844 C 229.132812 130.417969 227.769531 129.929688 226.429688 129.375 C 225.09375 128.820312 223.785156 128.203125 222.503906 127.519531 C 221.226562 126.835938 219.984375 126.089844 218.78125 125.285156 C 217.574219 124.480469 216.414062 123.617188 215.292969 122.699219 C 214.171875 121.78125 213.101562 120.808594 212.074219 119.78125 C 211.050781 118.757812 210.078125 117.6875 209.160156 116.566406 C 208.238281 115.445312 207.378906 114.28125 206.574219 113.078125 C 205.765625 111.871094 205.023438 110.628906 204.339844 109.351562 C 203.65625 108.074219 203.039062 106.765625 202.484375 105.425781 C 201.929688 104.089844 201.441406 102.726562 201.019531 101.339844 C 200.601562 99.953125 200.246094 98.546875 199.964844 97.125 C 199.683594 95.703125 199.46875 94.273438 199.328125 92.832031 C 199.1875 91.386719 199.113281 89.941406 199.113281 88.492188 C 199.113281 87.042969 199.1875 85.597656 199.328125 84.15625 C 199.46875 82.714844 199.683594 81.28125 199.964844 79.859375 C 200.246094 78.4375 200.601562 77.035156 201.019531 75.648438 C 201.441406 74.261719 201.929688 72.898438 202.484375 71.558594 C 203.039062 70.222656 203.65625 68.914062 204.339844 67.632812 C 205.023438 66.355469 205.765625 65.113281 206.574219 63.910156 C 207.378906 62.703125 208.238281 61.542969 209.160156 60.421875 C 210.078125 59.300781 211.050781 58.230469 212.074219 57.203125 C 213.101562 56.179688 214.171875 55.207031 215.292969 54.289062 C 216.414062 53.367188 217.574219 52.507812 218.78125 51.699219 C 219.984375 50.894531 221.226562 50.152344 222.503906 49.46875 C 223.785156 48.785156 225.09375 48.167969 226.429688 47.613281 C 227.769531 47.058594 229.132812 46.570312 230.519531 46.148438 C 231.90625 45.726562 233.3125 45.375 234.730469 45.09375 C 236.152344 44.8125 237.585938 44.597656 239.027344 44.457031 C 240.46875 44.316406 241.914062 44.242188 243.363281 44.242188 C 244.8125 44.242188 246.261719 44.316406 247.703125 44.457031 C 249.144531 44.597656 250.578125 44.8125 251.996094 45.09375 C 253.417969 45.375 254.824219 45.726562 256.210938 46.148438 C 257.597656 46.570312 258.960938 47.058594 260.296875 47.613281 C 261.636719 48.167969 262.945312 48.785156 264.222656 49.46875 C 265.503906 50.152344 266.742188 50.894531 267.949219 51.699219 C 269.152344 52.507812 270.316406 53.367188 271.4375 54.289062 C 272.558594 55.207031 273.628906 56.179688 274.65625 57.203125 C 275.679688 58.230469 276.652344 59.300781 277.570312 60.421875 C 278.488281 61.542969 279.351562 62.703125 280.15625 63.910156 C 280.960938 65.113281 281.707031 66.355469 282.390625 67.632812 C 283.074219 68.914062 283.691406 70.222656 284.246094 71.558594 C 284.800781 72.898438 285.289062 74.261719 285.710938 75.648438 C 286.128906 77.035156 286.480469 78.4375 286.765625 79.859375 C 287.046875 81.28125 287.261719 82.714844 287.402344 84.15625 C 287.542969 85.597656 287.613281 87.042969 287.613281 88.492188 Z M 287.613281 88.492188 " fill-opacity="1" fill-rule="nonzero"/><path fill="#ffc144" d="M 221.238281 99.558594 C 221.226562 98.75 221.242188 97.941406 221.277344 97.136719 C 221.3125 96.328125 221.371094 95.523438 221.453125 94.71875 C 221.535156 93.914062 221.636719 93.113281 221.761719 92.316406 C 221.886719 91.519531 222.035156 90.722656 222.203125 89.933594 C 222.371094 89.144531 222.5625 88.359375 222.773438 87.578125 C 222.988281 86.800781 223.222656 86.027344 223.476562 85.261719 C 223.730469 84.496094 224.007812 83.734375 224.304688 82.984375 C 224.601562 82.234375 224.921875 81.492188 225.257812 80.757812 C 225.597656 80.023438 225.957031 79.300781 226.335938 78.585938 C 226.714844 77.871094 227.113281 77.171875 227.53125 76.480469 C 227.945312 75.785156 228.382812 75.105469 228.839844 74.441406 C 229.292969 73.773438 229.765625 73.117188 230.257812 72.476562 C 230.75 71.835938 231.257812 71.207031 231.785156 70.59375 C 232.3125 69.980469 232.851562 69.382812 233.414062 68.800781 C 233.972656 68.21875 234.546875 67.652344 235.136719 67.101562 C 235.726562 66.550781 236.332031 66.015625 236.953125 65.496094 C 237.574219 64.980469 238.207031 64.480469 238.855469 63.996094 C 239.503906 63.515625 240.164062 63.050781 240.839844 62.605469 C 241.511719 62.160156 242.199219 61.730469 242.894531 61.324219 C 243.59375 60.914062 244.300781 60.527344 245.019531 60.160156 C 245.738281 59.789062 246.46875 59.441406 247.203125 59.113281 C 247.941406 58.785156 248.691406 58.476562 249.445312 58.191406 C 250.199219 57.902344 250.960938 57.636719 251.734375 57.394531 C 252.503906 57.148438 253.277344 56.925781 254.0625 56.722656 C 254.84375 56.523438 255.628906 56.34375 256.421875 56.183594 C 257.214844 56.027344 258.011719 55.890625 258.8125 55.777344 C 259.609375 55.660156 260.414062 55.570312 261.21875 55.5 C 262.023438 55.429688 262.828125 55.382812 263.636719 55.359375 C 264.445312 55.332031 265.25 55.332031 266.058594 55.351562 C 266.867188 55.371094 267.671875 55.414062 268.476562 55.476562 C 269.285156 55.542969 270.085938 55.628906 270.886719 55.738281 C 271.6875 55.847656 272.484375 55.976562 273.277344 56.128906 C 272.652344 55.550781 272.007812 54.984375 271.351562 54.441406 C 270.691406 53.898438 270.015625 53.371094 269.328125 52.867188 C 268.636719 52.363281 267.933594 51.878906 267.214844 51.414062 C 266.5 50.949219 265.769531 50.503906 265.023438 50.082031 C 264.28125 49.660156 263.527344 49.261719 262.761719 48.882812 C 261.992188 48.503906 261.214844 48.148438 260.429688 47.816406 C 259.640625 47.484375 258.847656 47.175781 258.039062 46.886719 C 257.234375 46.601562 256.421875 46.335938 255.601562 46.097656 C 254.78125 45.859375 253.957031 45.644531 253.121094 45.453125 C 252.289062 45.261719 251.453125 45.09375 250.609375 44.949219 C 249.765625 44.808594 248.917969 44.6875 248.070312 44.59375 C 247.21875 44.5 246.367188 44.433594 245.515625 44.386719 C 244.660156 44.34375 243.808594 44.324219 242.953125 44.328125 C 242.097656 44.335938 241.246094 44.367188 240.390625 44.421875 C 239.539062 44.476562 238.6875 44.554688 237.839844 44.660156 C 236.992188 44.761719 236.144531 44.890625 235.304688 45.046875 C 234.464844 45.199219 233.628906 45.375 232.796875 45.578125 C 231.96875 45.78125 231.144531 46.007812 230.328125 46.257812 C 229.507812 46.507812 228.699219 46.78125 227.898438 47.078125 C 227.097656 47.371094 226.304688 47.691406 225.519531 48.035156 C 224.738281 48.378906 223.964844 48.742188 223.203125 49.132812 C 222.441406 49.519531 221.691406 49.929688 220.953125 50.359375 C 220.214844 50.789062 219.492188 51.242188 218.78125 51.714844 C 218.066406 52.191406 217.371094 52.683594 216.6875 53.195312 C 216.003906 53.710938 215.335938 54.246094 214.683594 54.796875 C 214.03125 55.347656 213.398438 55.921875 212.777344 56.511719 C 212.160156 57.097656 211.558594 57.707031 210.972656 58.332031 C 210.390625 58.957031 209.824219 59.597656 209.277344 60.253906 C 208.734375 60.910156 208.207031 61.582031 207.699219 62.269531 C 207.191406 62.957031 206.703125 63.660156 206.238281 64.375 C 205.769531 65.09375 205.324219 65.820312 204.902344 66.5625 C 204.476562 67.304688 204.074219 68.058594 203.695312 68.824219 C 203.3125 69.589844 202.957031 70.367188 202.621094 71.152344 C 202.285156 71.9375 201.972656 72.734375 201.683594 73.539062 C 201.394531 74.34375 201.128906 75.15625 200.886719 75.972656 C 200.644531 76.792969 200.425781 77.621094 200.230469 78.453125 C 200.035156 79.285156 199.867188 80.121094 199.722656 80.964844 C 199.574219 81.804688 199.453125 82.652344 199.359375 83.5 C 199.261719 84.351562 199.191406 85.203125 199.144531 86.054688 C 199.097656 86.910156 199.074219 87.761719 199.078125 88.617188 C 199.078125 89.472656 199.105469 90.328125 199.160156 91.179688 C 199.210938 92.03125 199.289062 92.882812 199.390625 93.734375 C 199.492188 94.582031 199.617188 95.425781 199.769531 96.269531 C 199.917969 97.109375 200.09375 97.945312 200.292969 98.777344 C 200.492188 99.609375 200.714844 100.433594 200.964844 101.25 C 201.210938 102.070312 201.480469 102.878906 201.777344 103.679688 C 202.070312 104.484375 202.386719 105.277344 202.726562 106.0625 C 203.066406 106.84375 203.429688 107.617188 203.816406 108.382812 C 204.199219 109.144531 204.609375 109.894531 205.035156 110.636719 C 205.464844 111.375 205.914062 112.101562 206.386719 112.816406 C 206.859375 113.527344 207.347656 114.226562 207.859375 114.910156 C 208.371094 115.597656 208.902344 116.265625 209.453125 116.917969 C 210.003906 117.574219 210.574219 118.210938 211.160156 118.832031 C 211.75 119.453125 212.355469 120.054688 212.976562 120.640625 C 213.597656 121.226562 214.238281 121.792969 214.894531 122.34375 C 215.550781 122.890625 216.21875 123.417969 216.90625 123.929688 C 217.59375 124.4375 218.292969 124.929688 219.007812 125.398438 C 219.722656 125.867188 220.449219 126.3125 221.191406 126.742188 C 221.929688 127.167969 222.683594 127.570312 223.449219 127.953125 C 224.210938 128.335938 224.988281 128.699219 225.769531 129.035156 C 226.554688 129.375 227.351562 129.6875 228.152344 129.980469 C 228.957031 130.273438 229.769531 130.542969 230.585938 130.785156 C 231.40625 131.03125 232.230469 131.25 233.0625 131.449219 C 233.894531 131.644531 234.730469 131.816406 235.574219 131.964844 C 233.320312 129.910156 231.304688 127.644531 229.519531 125.167969 C 227.738281 122.691406 226.230469 120.058594 224.996094 117.269531 C 223.761719 114.480469 222.828125 111.59375 222.195312 108.609375 C 221.5625 105.625 221.242188 102.609375 221.238281 99.558594 Z M 221.238281 99.558594 " fill-opacity="1" fill-rule="nonzero"/><g clip-path="url(#f81a8bb47f)"><path fill="#80b6ff" d="M 251.441406 168.652344 C 250.441406 167.402344 249.320312 166.277344 248.078125 165.269531 C 246.835938 164.265625 245.5 163.40625 244.070312 162.691406 C 242.640625 161.976562 241.152344 161.421875 239.601562 161.03125 C 238.050781 160.640625 236.476562 160.417969 234.878906 160.367188 C 233.28125 160.300781 231.695312 160.410156 230.121094 160.695312 C 228.546875 160.980469 227.023438 161.433594 225.550781 162.054688 C 224.078125 162.679688 222.691406 163.453125 221.386719 164.382812 C 220.085938 165.3125 218.902344 166.371094 217.832031 167.5625 L 187.488281 200.800781 L 137.578125 129.242188 C 136.558594 127.785156 135.382812 126.46875 134.046875 125.296875 C 132.710938 124.121094 131.257812 123.121094 129.679688 122.300781 C 128.105469 121.476562 126.453125 120.851562 124.726562 120.425781 C 123 120 121.246094 119.785156 119.46875 119.78125 L 119.429688 119.78125 C 117.65625 119.78125 115.90625 119.992188 114.183594 120.414062 C 112.457031 120.835938 110.808594 121.453125 109.234375 122.273438 C 107.65625 123.089844 106.203125 124.082031 104.863281 125.25 C 103.527344 126.417969 102.347656 127.726562 101.328125 129.179688 L 0 273.484375 L 0 276.550781 C 0.00390625 278.363281 0.09375 280.167969 0.273438 281.96875 C 0.453125 283.773438 0.71875 285.5625 1.074219 287.335938 C 1.429688 289.113281 1.867188 290.867188 2.394531 292.597656 C 2.921875 294.332031 3.535156 296.035156 4.226562 297.707031 C 4.921875 299.378906 5.695312 301.011719 6.550781 302.609375 C 7.402344 304.207031 8.335938 305.757812 9.339844 307.261719 C 10.347656 308.769531 11.425781 310.21875 12.574219 311.621094 C 13.722656 313.019531 14.9375 314.359375 16.21875 315.640625 C 17.5 316.921875 18.839844 318.136719 20.238281 319.285156 C 21.636719 320.433594 23.089844 321.511719 24.59375 322.515625 C 26.101562 323.523438 27.652344 324.453125 29.25 325.308594 C 30.84375 326.164062 32.480469 326.9375 34.152344 327.632812 C 35.824219 328.324219 37.527344 328.933594 39.261719 329.460938 C 40.992188 329.988281 42.746094 330.429688 44.523438 330.785156 C 46.296875 331.140625 48.085938 331.40625 49.886719 331.585938 C 51.691406 331.765625 53.496094 331.855469 55.308594 331.859375 L 276.550781 331.859375 C 278.363281 331.855469 280.167969 331.765625 281.96875 331.585938 C 283.773438 331.40625 285.5625 331.140625 287.335938 330.785156 C 289.113281 330.429688 290.867188 329.988281 292.597656 329.460938 C 294.332031 328.933594 296.035156 328.324219 297.707031 327.632812 C 299.378906 326.9375 301.011719 326.164062 302.609375 325.308594 C 304.207031 324.453125 305.757812 323.523438 307.261719 322.515625 C 308.769531 321.511719 310.21875 320.433594 311.621094 319.285156 C 313.019531 318.136719 314.359375 316.921875 315.640625 315.640625 C 316.921875 314.359375 318.136719 313.019531 319.285156 311.621094 C 320.433594 310.21875 321.511719 308.769531 322.515625 307.261719 C 323.523438 305.757812 324.453125 304.207031 325.308594 302.609375 C 326.164062 301.011719 326.9375 299.378906 327.632812 297.707031 C 328.324219 296.035156 328.933594 294.332031 329.460938 292.597656 C 329.988281 290.867188 330.429688 289.113281 330.785156 287.335938 C 331.140625 285.5625 331.40625 283.773438 331.585938 281.96875 C 331.765625 280.167969 331.855469 278.363281 331.859375 276.550781 L 331.859375 269.085938 Z M 251.441406 168.652344 " fill-opacity="1" fill-rule="nonzero"/></g><g clip-path="url(#4969ee85b2)"><path fill="#60a4ff" d="M 298.671875 309.738281 L 77.4375 309.738281 C 75.625 309.734375 73.816406 309.644531 72.015625 309.464844 C 70.214844 309.285156 68.425781 309.015625 66.648438 308.660156 C 64.875 308.308594 63.121094 307.867188 61.386719 307.339844 C 59.65625 306.8125 57.953125 306.203125 56.277344 305.507812 C 54.605469 304.8125 52.972656 304.039062 51.375 303.183594 C 49.777344 302.328125 48.226562 301.398438 46.722656 300.394531 C 45.214844 299.386719 43.765625 298.308594 42.363281 297.160156 C 40.964844 296.011719 39.625 294.796875 38.34375 293.515625 C 37.0625 292.234375 35.847656 290.894531 34.699219 289.496094 C 33.550781 288.09375 32.472656 286.640625 31.464844 285.136719 C 30.460938 283.632812 29.527344 282.082031 28.675781 280.484375 C 27.820312 278.886719 27.046875 277.253906 26.351562 275.578125 C 25.65625 273.90625 25.046875 272.203125 24.519531 270.472656 C 23.992188 268.738281 23.550781 266.984375 23.195312 265.207031 C 22.839844 263.433594 22.574219 261.644531 22.394531 259.84375 C 22.214844 258.039062 22.125 256.234375 22.121094 254.421875 L 22.121094 241.984375 L 0 273.484375 L 0 276.550781 C 0.00390625 278.363281 0.09375 280.167969 0.273438 281.96875 C 0.453125 283.773438 0.71875 285.5625 1.074219 287.335938 C 1.429688 289.113281 1.867188 290.867188 2.394531 292.597656 C 2.921875 294.332031 3.535156 296.035156 4.226562 297.707031 C 4.921875 299.378906 5.695312 301.011719 6.550781 302.609375 C 7.402344 304.207031 8.335938 305.757812 9.339844 307.261719 C 10.347656 308.769531 11.425781 310.21875 12.574219 311.621094 C 13.722656 313.019531 14.9375 314.359375 16.21875 315.640625 C 17.5 316.921875 18.839844 318.136719 20.238281 319.285156 C 21.636719 320.433594 23.089844 321.511719 24.59375 322.515625 C 26.101562 323.523438 27.652344 324.453125 29.25 325.308594 C 30.84375 326.164062 32.480469 326.9375 34.152344 327.632812 C 35.824219 328.324219 37.527344 328.933594 39.261719 329.460938 C 40.992188 329.988281 42.746094 330.429688 44.523438 330.785156 C 46.296875 331.140625 48.085938 331.40625 49.886719 331.585938 C 51.691406 331.765625 53.496094 331.855469 55.308594 331.859375 L 276.550781 331.859375 C 297.492188 331.859375 315.539062 320.015625 324.921875 302.800781 C 320.910156 305.042969 316.679688 306.753906 312.234375 307.925781 C 307.789062 309.101562 303.269531 309.703125 298.671875 309.738281 Z M 298.671875 309.738281 " fill-opacity="1" fill-rule="nonzero"/></g></svg>