<svg xmlns="http://www.w3.org/2000/svg" xmlns:xlink="http://www.w3.org/1999/xlink" width="500" zoomAndPan="magnify" viewBox="0 0 375 374.999991" height="500" preserveAspectRatio="xMidYMid meet" version="1.0"><path fill="#f7c67e" d="M 372.109375 235.722656 C 366.28125 221.492188 375 206.464844 364.488281 194.292969 C 361.785156 190.972656 360.222656 190.191406 359.898438 186.222656 C 360.8125 167.582031 353.90625 165.175781 343.460938 152.503906 C 339.542969 146.445312 337.316406 138.929688 331.582031 134.28125 C 337.085938 104.109375 329.988281 23.039062 317.070312 16.179688 C 305.796875 10.21875 253.667969 54.730469 238.300781 75.925781 C 225.664062 75.480469 214.15625 66.394531 201.105469 69.78125 C 190.777344 62.824219 178.59375 69.859375 167.675781 68.40625 C 158.285156 65.292969 150.878906 71.238281 143.332031 75.785156 C 117.339844 71.3125 123.796875 85.175781 105.933594 86.191406 C 76.152344 60.632812 39.144531 30.386719 24.175781 36.289062 C 8.160156 42.535156 15.324219 139.253906 24.597656 170.820312 C 10.046875 180.957031 3.628906 192.183594 9.886719 209.644531 C 10.304688 213.25 7.511719 216.503906 5.984375 219.535156 C -0.0234375 228.492188 5.671875 237.417969 8.101562 246.257812 C 1.105469 265.074219 8.109375 267.921875 15.941406 283.234375 C 16.746094 292.382812 17.417969 302.675781 26.457031 307.707031 C 38.261719 311.992188 31.621094 322.097656 45.003906 326.886719 C 58.1875 329.503906 59.441406 345.410156 71.238281 350.492188 C 76.402344 352.867188 81.261719 352.445312 86.730469 352.152344 C 96.160156 352.59375 101.558594 362.617188 110.847656 364.359375 C 130.027344 366.699219 116.890625 359.253906 137.828125 370.609375 C 145.890625 373.675781 155.726562 368.394531 163.050781 372.753906 C 169.972656 376.546875 177.851562 376.300781 185.316406 374.511719 C 196.191406 379.605469 206.503906 373.867188 217.304688 372.554688 C 228.070312 375.054688 232.730469 368.5625 242.109375 367.449219 C 247.773438 367.613281 253.402344 367.839844 258.574219 364.941406 C 262.160156 362.957031 263.039062 360 267.171875 359.542969 C 281.761719 359.371094 281.1875 357.261719 292.097656 349.804688 C 324.414062 345.171875 312.800781 336.652344 333.921875 322.894531 C 351.246094 313.054688 348.988281 302.941406 356.792969 288.722656 C 359.855469 285.109375 363.238281 281.5625 365.585938 277.429688 C 369.4375 271.328125 366.890625 264.566406 366.035156 258.199219 C 367.03125 250.335938 373 243.941406 372.109375 235.722656 Z M 372.109375 235.722656 " fill-opacity="1" fill-rule="nonzero"/><path fill="#fae4cf" d="M 96.890625 98.753906 C 91.910156 100.867188 88.28125 105.394531 84.242188 108.75 C 84.347656 108.765625 84.449219 108.765625 84.554688 108.75 C 69.503906 111.105469 64.632812 123.121094 54.304688 131.722656 C 41.121094 137.117188 42.199219 145.539062 33.234375 153.167969 C 25.859375 125.761719 22.332031 58.007812 30.203125 53.71875 C 38.074219 49.433594 76.726562 79.289062 96.890625 98.753906 Z M 96.890625 98.753906 " fill-opacity="1" fill-rule="nonzero"/><path fill="#fae4cf" d="M 322.964844 124.714844 C 317.699219 115.863281 308.867188 111 299.277344 108.117188 C 299.320312 108.207031 299.375 108.289062 299.445312 108.359375 C 290.351562 95.671875 277.175781 96.777344 264.535156 91.304688 C 259.660156 88.15625 255.300781 84.664062 249.183594 84.429688 C 326.457031 -4.660156 320.390625 29.828125 322.964844 124.714844 Z M 322.964844 124.714844 " fill-opacity="1" fill-rule="nonzero"/><path fill="#62442f" d="M 153.746094 232.226562 C 154.53125 248.675781 129.527344 249.972656 128.597656 233.53125 C 127.816406 217.085938 152.824219 215.78125 153.746094 232.226562 Z M 153.746094 232.226562 " fill-opacity="1" fill-rule="nonzero"/><path fill="#62442f" d="M 259.726562 226.714844 C 260.507812 243.164062 235.5 244.464844 234.574219 228.019531 C 233.792969 211.570312 258.796875 210.273438 259.726562 226.714844 Z M 259.726562 226.714844 " fill-opacity="1" fill-rule="nonzero"/><path fill="#62442f" d="M 311.257812 250.578125 C 307.710938 250.859375 306.890625 245.332031 310.445312 244.617188 L 347.113281 236.371094 C 347.503906 236.285156 347.898438 236.273438 348.292969 236.34375 C 348.6875 236.410156 349.054688 236.554688 349.394531 236.769531 C 349.730469 236.984375 350.015625 237.253906 350.246094 237.582031 C 350.476562 237.910156 350.636719 238.269531 350.722656 238.660156 C 350.8125 239.054688 350.820312 239.445312 350.753906 239.839844 C 350.683594 240.234375 350.542969 240.601562 350.328125 240.941406 C 350.113281 241.28125 349.839844 241.566406 349.511719 241.796875 C 349.183594 242.027344 348.824219 242.183594 348.433594 242.273438 C 347.753906 242.355469 311.929688 250.570312 311.257812 250.578125 Z M 311.257812 250.578125 " fill-opacity="1" fill-rule="nonzero"/><path fill="#62442f" d="M 350.25 267.714844 C 350.003906 267.714844 312.695312 266.402344 312.429688 266.402344 C 308.519531 266.335938 308.742188 260.148438 312.636719 260.367188 L 350.1875 261.6875 C 353.945312 261.738281 353.980469 267.597656 350.25 267.714844 Z M 350.25 267.714844 " fill-opacity="1" fill-rule="nonzero"/><path fill="#62442f" d="M 80.105469 262.609375 C 79.464844 262.675781 42.894531 258.183594 42.265625 258.183594 C 41.867188 258.136719 41.496094 258.011719 41.148438 257.8125 C 40.800781 257.617188 40.503906 257.359375 40.253906 257.042969 C 40.007812 256.730469 39.832031 256.378906 39.726562 255.992188 C 39.621094 255.605469 39.589844 255.214844 39.640625 254.816406 C 39.6875 254.417969 39.8125 254.046875 40.007812 253.699219 C 40.207031 253.351562 40.460938 253.050781 40.777344 252.804688 C 41.09375 252.558594 41.441406 252.382812 41.828125 252.273438 C 42.214844 252.167969 42.605469 252.136719 43.003906 252.1875 L 80.328125 256.613281 C 83.890625 256.9375 83.683594 262.515625 80.105469 262.609375 Z M 80.105469 262.609375 " fill-opacity="1" fill-rule="nonzero"/><path fill="#62442f" d="M 43.097656 283.699219 C 39.410156 283.964844 38.792969 278.140625 42.53125 277.695312 L 79.75 272.488281 C 80.144531 272.441406 80.53125 272.46875 80.910156 272.574219 C 81.292969 272.679688 81.640625 272.851562 81.953125 273.09375 C 82.265625 273.335938 82.519531 273.625 82.71875 273.96875 C 82.917969 274.308594 83.042969 274.675781 83.097656 275.066406 C 83.152344 275.457031 83.132812 275.84375 83.035156 276.226562 C 82.9375 276.609375 82.769531 276.960938 82.535156 277.277344 C 82.300781 277.597656 82.015625 277.859375 81.675781 278.0625 C 81.339844 278.269531 80.976562 278.402344 80.585938 278.464844 C 80.320312 278.492188 43.351562 283.695312 43.097656 283.699219 Z M 43.097656 283.699219 " fill-opacity="1" fill-rule="nonzero"/><path fill="#dc7a5d" d="M 122.835938 256.746094 C 119.191406 253.101562 112.597656 254.15625 110.09375 258.496094 C 105.195312 251.664062 93.789062 256.589844 95.289062 264.90625 C 96.816406 272.539062 103.070312 281.496094 111.335938 282.308594 C 120.527344 280.460938 130.101562 264.640625 122.835938 256.746094 Z M 122.835938 256.746094 " fill-opacity="1" fill-rule="nonzero"/><path fill="#dc7a5d" d="M 295.992188 247.738281 C 292.347656 244.085938 285.753906 245.140625 283.261719 249.488281 C 278.355469 242.648438 266.957031 247.578125 268.445312 255.890625 C 269.972656 263.53125 276.230469 272.488281 284.5 273.292969 C 293.699219 271.476562 303.277344 255.632812 295.992188 247.738281 Z M 295.992188 247.738281 " fill-opacity="1" fill-rule="nonzero"/><path fill="#fae4cf" d="M 157.945312 253.949219 C 163.332031 248.96875 181.347656 238.386719 194.738281 237.226562 C 219.71875 235.011719 259.953125 256.496094 243.921875 278.308594 C 235.203125 288.4375 205.929688 292.539062 197.800781 262.515625 C 188.496094 314.003906 127.121094 284.359375 157.945312 253.949219 Z M 157.945312 253.949219 " fill-opacity="1" fill-rule="nonzero"/><path fill="#dc7a5d" d="M 211.90625 241.019531 C 211.167969 254.570312 182.070312 256.074219 179.960938 242.679688 C 178.980469 232.136719 211.792969 230.425781 211.90625 241.019531 Z M 211.90625 241.019531 " fill-opacity="1" fill-rule="nonzero"/><path fill="#f29f6e" d="M 161.066406 146.351562 C 157.71875 169.21875 125.75 157.585938 135.71875 133.109375 C 128.714844 127.414062 125.386719 117.539062 130.148438 109.28125 C 120.144531 99.242188 121.757812 87.054688 128.582031 75.570312 C 128.53125 75.535156 128.476562 75.5 128.421875 75.472656 C 141.007812 73.828125 141.089844 79.257812 152.996094 69.808594 C 155.082031 77.695312 151.269531 85.527344 147.5 92.300781 C 153.601562 98.660156 157.710938 107.933594 153.910156 116.609375 C 160.445312 122.554688 162.886719 132.097656 159.214844 140.214844 C 160.328125 142.109375 160.945312 144.15625 161.066406 146.351562 Z M 161.066406 146.351562 " fill-opacity="1" fill-rule="nonzero"/><path fill="#f29f6e" d="M 230.039062 132.460938 C 233.726562 124.300781 231.285156 114.757812 224.734375 108.855469 C 228.535156 100.179688 224.460938 90.90625 218.316406 84.511719 C 220.316406 80.660156 222.566406 76.792969 223.6875 72.539062 C 220.140625 70.984375 216.441406 69.972656 212.597656 69.5 C 208.753906 69.03125 204.921875 69.121094 201.105469 69.773438 C 200.566406 69.476562 199.703125 69.160156 199.015625 68.828125 C 192.105469 79.15625 191.71875 92.574219 200.972656 101.46875 C 196.25 109.734375 199.546875 119.617188 206.535156 125.320312 C 195.402344 158.132812 240.648438 157.304688 230.039062 132.460938 Z M 202.046875 103.101562 C 202.035156 103.070312 202.035156 103.035156 202.046875 103.003906 C 202.046875 103.070312 202.113281 103.136719 202.046875 103.195312 C 201.980469 103.253906 202.078125 103.136719 202.046875 103.101562 Z M 221.578125 105.742188 C 221.800781 105.796875 221.972656 105.925781 222.09375 106.125 C 221.902344 106 221.695312 105.835938 221.578125 105.742188 Z M 221.578125 105.742188 " fill-opacity="1" fill-rule="nonzero"/><path fill="#f29f6e" d="M 200.054688 154.230469 C 201.921875 182.660156 161.101562 167.980469 174.234375 143.296875 C 165.09375 137.328125 165.09375 125.121094 170.132812 116.445312 C 162.84375 109.328125 162.089844 98.886719 165.351562 89.527344 C 165.207031 89.34375 165.074219 89.148438 164.960938 88.945312 C 159.796875 82.984375 156.035156 76.5 156.726562 68.289062 C 165.09375 66.585938 172.957031 70.308594 181.5625 67.34375 C 181.25 68.253906 181.074219 69.1875 181.039062 70.148438 C 181.265625 70.503906 181.429688 70.730469 181.523438 70.886719 C 189.425781 78.46875 191.734375 89.511719 187.90625 99.722656 C 194.621094 106.015625 197.496094 115.988281 193.238281 124.457031 C 202.320312 129.804688 203.117188 141.960938 198.191406 150.355469 C 199.070312 151.523438 199.691406 152.8125 200.054688 154.230469 Z M 200.054688 154.230469 " fill-opacity="1" fill-rule="nonzero"/></svg>